TITLE:   REEL 1.25 (19:02) LOCKOFF_QTREF.COPY.01 
001  004      V     C        04:00:00:00 04:00:07:17 01:00:00:00 01:00:07:17 
* FROM CLIP NAME:  VTR 004 
002     AX    V     C        00:00:22:01 00:00:33:15 01:00:07:17 01:00:19:06 
* FROM CLIP NAME:  FILM COMMISSION LOGO 
003     BL    V     C        00:00:00:00 00:00:03:02 01:00:19:06 01:00:22:08 
004     AX    V     C        00:00:04:07 00:00:11:10 01:00:22:08 01:00:29:11 
* FROM CLIP NAME:  NZFC.01 
005     BL    V     C        00:00:00:00 00:00:03:03 01:00:29:11 01:00:32:14 
006     AX    V     C        00:00:09:23 00:00:17:05 01:00:32:14 01:00:39:21 
* FROM CLIP NAME:  NZOA.02 
007     BL    V     C        00:00:00:00 00:00:03:06 01:00:39:21 01:00:43:02 
008     AX    V     C        00:00:05:16 00:00:12:20 01:00:43:02 01:00:50:06 
* FROM CLIP NAME:  CONDOR FILMS.03 
009     BL    V     C        00:00:00:00 00:00:02:15 01:00:50:06 01:00:52:21 
010  129      V     C        09:01:34:06 09:01:46:06 01:00:52:21 01:01:04:21 
* FROM CLIP NAME:  SC001F_SER.SUB.04 
011  129      V     C        09:01:46:06 09:02:10:14 01:01:04:21 01:01:29:04 
* FROM CLIP NAME:  SC001F_SER.SUB.04 
012     BL    V     C        00:00:00:00 00:00:04:14 01:01:29:04 01:01:33:18 
* TO CLIP NAME:  SC001F_SER.SUB.04 
013     BL    V     C        00:00:00:00 00:00:02:13 01:01:33:18 01:01:36:06 
014  021      V     C        01:09:11:08 01:09:14:09 01:01:36:06 01:01:39:07 
* FROM CLIP NAME:  001E/24 
015  021      V     C        01:09:14:09 01:09:26:11 01:01:39:07 01:01:51:09 
* FROM CLIP NAME:  001E/24 
016     BL    V     C        00:00:00:00 00:00:04:14 01:01:51:09 01:01:55:23 
* TO CLIP NAME:  001E/24 
017     BL    V     C        00:00:00:00 00:00:02:21 01:01:55:23 01:01:58:19 
018     AX    V     C        00:00:00:00 00:00:05:21 01:01:58:19 01:02:04:15 
* FROM CLIP NAME:  13 NOVEMBER 1990.02 
019     BL    V     C        00:00:00:00 00:00:02:13 01:02:04:15 01:02:07:03 
020  127      V     C        07:08:22:05 07:08:53:16 01:02:07:03 01:02:38:14 
* FROM CLIP NAME:  ARADAWN/DUSK_SER 
021  127      V     C        07:09:32:17 07:09:38:18 01:02:38:14 01:02:44:15 
* FROM CLIP NAME:  ARAMORN_SER 
022  128      V     C        08:07:14:15 08:07:19:11 01:02:44:15 01:02:49:11 
* FROM CLIP NAME:  ARADAY_SER 
023  128      V     C        08:02:13:21 08:02:17:09 01:02:49:11 01:02:52:24 
* FROM CLIP NAME:  SC002_SER 
024  128      V     C        08:02:24:06 08:02:27:08 01:02:52:24 01:02:56:01 
* FROM CLIP NAME:  SC002_SER 
025  128      V     C        08:08:58:06 08:09:02:23 01:02:56:01 01:03:00:18 
* FROM CLIP NAME:  SC005_SER01 
026  128      V     C        08:01:35:00 08:01:38:14 01:03:00:18 01:03:04:07 
* FROM CLIP NAME:  SC002_SER 
027  128      V     C        08:00:15:21 08:00:20:20 01:03:04:07 01:03:09:06 
* FROM CLIP NAME:  SC002_SER 
028  128      V     C        08:10:36:24 08:10:40:21 01:03:09:06 01:03:13:03 
* FROM CLIP NAME:  SC005_SER01 
029  035      V     C        15:01:08:11 15:01:23:24 01:03:13:03 01:03:28:16 
* FROM CLIP NAME:  005D/02 
030  003      V     C        03:06:55:05 03:06:56:14 01:03:28:16 01:03:30:00 
* FROM CLIP NAME:  005A/01 
031  148      V     C        08:02:22:06 08:02:24:17 01:03:30:00 01:03:32:11 
* FROM CLIP NAME:  005F/02B 
032  002      V     C        02:04:54:23 02:05:04:23 01:03:32:11 01:03:42:11 
* FROM CLIP NAME:  006A/02 
033  003      V     C        03:10:10:21 03:10:15:15 01:03:42:11 01:03:47:05 
* FROM CLIP NAME:  005C/02 
034  002      V     C        02:07:14:09 02:07:18:01 01:03:47:05 01:03:50:22 
* FROM CLIP NAME:  016A/03 
035  004      V     C        04:01:41:06 04:01:46:16 01:03:50:22 01:03:56:07 
* FROM CLIP NAME:  007A/04 
036  004      V     C        04:02:17:17 04:02:31:11 01:03:56:07 01:04:10:01 
* FROM CLIP NAME:  007B/01 
037  004      V     C        04:05:59:18 04:06:03:19 01:04:10:01 01:04:14:02 
* FROM CLIP NAME:  007B/07 
038  053      V     C        13:09:13:02 13:09:17:14 01:04:14:02 01:04:18:14 
* FROM CLIP NAME:  014C/02 
039  056      V     C        16:11:27:18 16:11:36:20 01:04:18:14 01:04:27:16 
* FROM CLIP NAME:  A007A/01 
040  057      V     C        17:02:11:06 17:02:14:16 01:04:27:16 01:04:31:01 
* FROM CLIP NAME:  A007B/03 
041  056      V     C        16:11:40:16 16:11:48:10 01:04:31:01 01:04:38:20 
* FROM CLIP NAME:  A007A/01 
042  057      V     C        17:02:23:08 17:02:27:10 01:04:38:20 01:04:42:22 
* FROM CLIP NAME:  A007B/03 
043  022      V     C        02:05:34:24 02:05:44:13 01:04:42:22 01:04:52:11 
* FROM CLIP NAME:  008B/04 
044  097      V     C        17:01:23:23 17:01:31:11 01:04:52:11 01:04:59:24 
* FROM CLIP NAME:  009A/03 
045  097      V     C        17:03:59:06 17:04:04:22 01:04:59:24 01:05:05:15 
* FROM CLIP NAME:  009B/03 
046  097      V     C        17:01:35:09 17:01:37:10 01:05:05:15 01:05:07:16 
* FROM CLIP NAME:  009A/03 
047  151      V     C        11:10:20:14 11:10:23:21 01:05:07:16 01:05:10:23 
* FROM CLIP NAME:  011C/03_PT 
048  098      V     C        18:03:08:04 18:03:12:02 01:05:10:23 01:05:14:21 
* FROM CLIP NAME:  011B/01 
049  097      V     C        17:09:37:13 17:09:51:08 01:05:14:21 01:05:28:16 
* FROM CLIP NAME:  011A/02 
050  098      V     C        18:03:26:24 18:03:29:10 01:05:28:16 01:05:31:02 
* FROM CLIP NAME:  011B/01 
051  151      V     C        11:09:34:10 11:09:41:10 01:05:31:02 01:05:38:02 
* FROM CLIP NAME:  011C/02 
052  035      V     C        15:06:43:15 15:07:01:15 01:05:38:02 01:05:56:02 
* FROM CLIP NAME:  003A/06 
053  083      V     C        03:01:45:16 03:01:58:17 01:05:56:02 01:06:09:03 
* FROM CLIP NAME:  004A/03 
054  083      V     C        03:03:17:21 03:03:19:07 01:06:09:03 01:06:10:14 
* FROM CLIP NAME:  004C/02 
055  083      V     C        03:01:59:08 03:02:02:03 01:06:10:14 01:06:13:09 
* FROM CLIP NAME:  004A/03 
056  038      V     C        18:05:21:16 18:06:08:10 01:06:13:09 01:07:00:03 
* FROM CLIP NAME:  010L/02 
057  035      V     C        15:10:05:21 15:10:14:07 01:07:00:03 01:07:08:14 
* FROM CLIP NAME:  010A/03 
058  039      V     C        19:07:08:07 19:07:12:16 01:07:08:14 01:07:12:23 
* FROM CLIP NAME:  010R/01 
059  036      V     C        16:07:23:22 16:07:27:10 01:07:12:23 01:07:16:11 
* FROM CLIP NAME:  010C/01 
060  039      V     C        19:08:08:24 19:08:14:00 01:07:16:11 01:07:21:12 
* FROM CLIP NAME:  010R/01 
061  037      V     C        17:00:32:16 17:00:34:21 01:07:21:12 01:07:23:17 
* FROM CLIP NAME:  010D/04 
062  039      V     C        19:05:22:04 19:05:25:05 01:07:23:17 01:07:26:18 
* FROM CLIP NAME:  010Q/03 
063  040      V     C        20:02:03:07 20:02:05:21 01:07:26:18 01:07:29:07 
* FROM CLIP NAME:  010R/03_PT 
064  036      V     C        16:09:09:24 16:09:15:19 01:07:29:07 01:07:35:02 
* FROM CLIP NAME:  010D/01 
065  037      V     C        17:12:31:05 17:12:34:01 01:07:35:02 01:07:37:23 
* FROM CLIP NAME:  010H/01 
066  040      V     C        20:01:26:23 20:01:32:13 01:07:37:23 01:07:43:13 
* FROM CLIP NAME:  010R/02PT2_PT 
067  035      V     C        15:10:30:02 15:10:34:24 01:07:43:13 01:07:48:10 
* FROM CLIP NAME:  010G/01 
068  126      V     C        06:03:24:18 06:03:26:00 01:07:48:10 01:07:49:17 
* FROM CLIP NAME:  010W/01_SER 
069  037      V     C        17:10:24:16 17:10:29:04 01:07:49:17 01:07:54:05 
* FROM CLIP NAME:  010J/01 
070  149      V     C        09:00:51:21 09:00:55:00 01:07:54:05 01:07:57:09 
* FROM CLIP NAME:  038U/01B MS 
071  037      V     C        17:10:33:07 17:10:37:04 01:07:57:09 01:08:01:06 
* FROM CLIP NAME:  010J/01 
072  149      V     C        09:05:41:02 09:05:44:01 01:08:01:06 01:08:04:05 
* FROM CLIP NAME:  038V/01B MS 
073  037      V     C        17:11:20:02 17:11:24:19 01:08:04:05 01:08:08:22 
* FROM CLIP NAME:  010J/02 
074  014      V     C        14:03:33:23 14:03:35:14 01:08:08:22 01:08:10:13 
* FROM CLIP NAME:  047Z4/01 
075  011      V     C        11:02:17:11 11:02:22:02 01:08:10:13 01:08:15:04 
* FROM CLIP NAME:  012K/01 
076  008      V     C        08:03:03:19 08:03:05:18 01:08:15:04 01:08:17:03 
* FROM CLIP NAME:  012A/01 
077  011      V     C        11:03:49:15 11:03:52:00 01:08:17:03 01:08:19:13 
* FROM CLIP NAME:  012K/03 
078  008      V     C        08:03:12:17 08:03:14:10 01:08:19:13 01:08:21:06 
* FROM CLIP NAME:  012A/01 
079  011      V     C        11:03:54:08 11:03:55:03 01:08:21:06 01:08:22:01 
* FROM CLIP NAME:  012K/03 
080  009      V     C        09:03:32:16 09:03:44:07 01:08:22:01 01:08:33:17 
* FROM CLIP NAME:  012B/02 
081  011      V     C        11:02:58:20 11:03:00:15 01:08:33:17 01:08:35:12 
* FROM CLIP NAME:  012K/02 
082  009      V     C        09:03:46:02 09:03:47:09 01:08:35:12 01:08:36:19 
* FROM CLIP NAME:  012B/02 
083  008      V     C        08:04:57:13 08:04:58:19 01:08:36:19 01:08:38:00 
* FROM CLIP NAME:  012A/02 
084  011      V     C        11:04:11:20 11:04:13:04 01:08:38:00 01:08:39:09 
* FROM CLIP NAME:  012K/03 
085  008      V     C        08:05:00:07 08:05:04:10 01:08:39:09 01:08:43:12 
* FROM CLIP NAME:  012A/02 
086  011      V     C        11:05:29:10 11:05:34:01 01:08:43:12 01:08:48:03 
* FROM CLIP NAME:  012M/01 
087  009      V     C        09:05:38:15 09:05:41:03 01:08:48:03 01:08:50:16 
* FROM CLIP NAME:  012C/02 
088  011      V     C        11:06:01:19 11:06:03:16 01:08:50:16 01:08:52:13 
* FROM CLIP NAME:  012M/02 
089  009      V     C        09:05:43:11 09:05:47:09 01:08:52:13 01:08:56:11 
* FROM CLIP NAME:  012C/02 
090  011      V     C        11:06:13:09 11:06:14:18 01:08:56:11 01:08:57:20 
* FROM CLIP NAME:  012M/02 
091  008      V     C        08:05:17:24 08:05:19:09 01:08:57:20 01:08:59:05 
* FROM CLIP NAME:  012A/02 
092  009      V     C        09:05:51:08 09:05:53:05 01:08:59:05 01:09:01:02 
* FROM CLIP NAME:  012C/02 
093  008      V     C        08:03:58:15 08:04:03:03 01:09:01:02 01:09:05:15 
* FROM CLIP NAME:  012A/01 
094  010      V     C        10:12:21:21 10:12:26:10 01:09:05:15 01:09:10:04 
* FROM CLIP NAME:  012J/01 
095  010      V     C        10:04:05:10 10:04:10:09 01:09:10:04 01:09:15:03 
* FROM CLIP NAME:  012D/06 
096  010      V     C        10:12:29:09 10:12:31:09 01:09:15:03 01:09:17:03 
* FROM CLIP NAME:  012J/01 
097  010      V     C        10:11:44:20 10:11:49:22 01:09:17:03 01:09:22:05 
* FROM CLIP NAME:  012J/01 
098  010      V     C        10:06:02:19 10:06:09:11 01:09:22:05 01:09:28:22 
* FROM CLIP NAME:  012E/02 
099  010      V     C        10:10:56:17 10:11:00:17 01:09:28:22 01:09:32:22 
* FROM CLIP NAME:  012H/01 
100  010      V     C        10:06:14:15 10:06:18:23 01:09:32:22 01:09:37:05 
* FROM CLIP NAME:  012E/02 
101  011      V     C        11:01:15:06 11:01:18:23 01:09:37:05 01:09:40:22 
* FROM CLIP NAME:  012J/02 
102  010      V     C        10:06:25:17 10:06:28:13 01:09:40:22 01:09:43:18 
* FROM CLIP NAME:  012E/02 
103  011      V     C        11:01:22:18 11:01:30:16 01:09:43:18 01:09:51:16 
* FROM CLIP NAME:  012J/02 
104  053      V     C        13:08:59:22 13:09:12:03 01:09:51:16 01:10:03:22 
* FROM CLIP NAME:  014C/02 
105  152      V     C        12:02:13:04 12:02:33:11 01:10:03:22 01:10:24:04 
* FROM CLIP NAME:  011D/03 
106  093      V     C        13:07:21:10 13:07:26:21 01:10:24:04 01:10:29:15 
* FROM CLIP NAME:  014D/02 
107  045      V     C        05:00:21:07 05:00:33:20 01:10:29:15 01:10:42:03 
* FROM CLIP NAME:  014B/02 
108  046      V     C        06:03:49:06 06:03:56:21 01:10:42:03 01:10:49:18 
* FROM CLIP NAME:  017A/05 
109  002      V     C        02:06:47:10 02:06:55:11 01:10:49:18 01:10:57:19 
* FROM CLIP NAME:  016A/02 
110  128      V     C        08:05:42:19 08:06:03:22 01:10:57:19 01:11:18:22 
* FROM CLIP NAME:  ARADAY_SER 
111  074      V     C        14:02:00:18 14:02:16:07 01:11:18:22 01:11:34:11 
* FROM CLIP NAME:  018B/01 
112  074      V     C        14:10:32:17 14:10:48:09 01:11:34:11 01:11:50:03 
* FROM CLIP NAME:  018D/04 
113  074      V     C        14:08:05:00 14:08:06:11 01:11:50:03 01:11:51:14 
* FROM CLIP NAME:  018F/02 
114  075      V     C        15:03:17:08 15:03:19:01 01:11:51:14 01:11:53:07 
* FROM CLIP NAME:  018G/03 
115  074      V     C        14:10:49:10 14:10:53:21 01:11:53:07 01:11:57:18 
* FROM CLIP NAME:  018D/04 
116  155      V     C        15:01:18:04 15:01:22:18 01:11:57:18 01:12:02:07 
* FROM CLIP NAME:  020C/01B_SER_MS 
117  023      V     C        03:04:35:11 03:04:48:11 01:12:02:07 01:12:15:07 
* FROM CLIP NAME:  020B/02 
118  023      V     C        03:05:44:06 03:05:55:08 01:12:15:07 01:12:26:09 
* FROM CLIP NAME:  022A/01 
119  024      V     C        04:06:58:13 04:07:03:21 01:12:26:09 01:12:31:17 
* FROM CLIP NAME:  023A/01 
120  024      V     C        04:09:17:01 04:09:18:21 01:12:31:17 01:12:33:12 
* FROM CLIP NAME:  023B/02 
121  026      V     C        06:00:31:21 06:00:39:03 01:12:33:12 01:12:40:19 
* FROM CLIP NAME:  023E/01 
122  024      V     C        04:09:28:18 04:09:37:04 01:12:40:19 01:12:49:05 
* FROM CLIP NAME:  023B/02 
123  026      V     C        06:05:25:24 06:05:29:18 01:12:49:05 01:12:52:24 
* FROM CLIP NAME:  023E/03 
124  024      V     C        04:09:39:07 04:09:48:03 01:12:52:24 01:13:01:20 
* FROM CLIP NAME:  023B/02 
125  026      V     C        06:02:39:20 06:02:46:22 01:13:01:20 01:13:08:22 
* FROM CLIP NAME:  023E/02 
126  027      V     C        07:07:31:11 07:07:35:23 01:13:08:22 01:13:13:09 
* FROM CLIP NAME:  023H/01 
127  027      V     C        07:05:19:16 07:05:25:15 01:13:13:09 01:13:19:08 
* FROM CLIP NAME:  023F/03 
128  024      V     C        04:10:15:06 04:10:20:10 01:13:19:08 01:13:24:12 
* FROM CLIP NAME:  023B/02 
129  027      V     C        07:05:27:24 07:05:30:03 01:13:24:12 01:13:26:16 
* FROM CLIP NAME:  023F/03 
130  027      V     C        07:07:56:06 07:07:59:00 01:13:26:16 01:13:29:10 
* FROM CLIP NAME:  023Z1/01 
131  025      V     C        05:07:31:11 05:07:33:16 01:13:29:10 01:13:31:15 
* FROM CLIP NAME:  023D/04 
132  026      V     C        06:06:54:03 06:06:58:16 01:13:31:15 01:13:36:03 
* FROM CLIP NAME:  023E/03 
133  025      V     C        05:07:35:22 05:07:37:04 01:13:36:03 01:13:37:10 
* FROM CLIP NAME:  023D/04 
134  027      V     C        07:05:57:13 07:05:59:08 01:13:37:10 01:13:39:05 
* FROM CLIP NAME:  023F/04 
135  025      V     C        05:07:05:06 05:07:13:17 01:13:39:05 01:13:47:16 
* FROM CLIP NAME:  023D/03 
136  027      V     C        07:03:42:10 07:03:46:01 01:13:47:16 01:13:51:07 
* FROM CLIP NAME:  023F/02 
137  026      V     C        06:04:03:07 06:04:08:04 01:13:51:07 01:13:56:04 
* FROM CLIP NAME:  023E/02 
138  078      V     C        18:08:29:00 18:08:43:14 01:13:56:04 01:14:10:18 
* FROM CLIP NAME:  A024A/01_SER 
139  078      V     C        18:05:38:17 18:05:46:06 01:14:10:18 01:14:18:07 
* FROM CLIP NAME:  025B/02 
140  135      V     C        15:02:34:08 15:02:40:07 01:14:18:07 01:14:24:06 
* FROM CLIP NAME:  027B/01_SER 
141  134      V     C        14:02:55:11 14:03:04:22 01:14:24:06 01:14:33:17 
* FROM CLIP NAME:  026E/01 
142  134      V     C        14:08:10:07 14:08:11:19 01:14:33:17 01:14:35:04 
* FROM CLIP NAME:  026G/01 
143  134      V     C        14:08:56:16 14:09:00:14 01:14:35:04 01:14:39:02 
* FROM CLIP NAME:  026G/01 
144  133      V     C        13:08:08:05 13:08:13:14 01:14:39:02 01:14:44:11 
* FROM CLIP NAME:  026C/04_MS 
145  134      V     C        14:05:16:13 14:05:22:05 01:14:44:11 01:14:50:03 
* FROM CLIP NAME:  026E/04 
146  134      V     C        14:00:29:16 14:00:33:23 01:14:50:03 01:14:54:10 
* FROM CLIP NAME:  026D/02 
147  134      V     C        14:04:18:17 14:04:22:07 01:14:54:10 01:14:58:00 
* FROM CLIP NAME:  026E/03 
148  134      V     C        14:01:50:22 14:01:59:04 01:14:58:00 01:15:06:07 
* FROM CLIP NAME:  026D/03 
149  133      V     C        13:04:32:14 13:04:34:00 01:15:06:07 01:15:07:18 
* FROM CLIP NAME:  026B/02 
150  134      V     C        14:09:17:07 14:09:22:22 01:15:07:18 01:15:13:08 
* FROM CLIP NAME:  026G/01 
151  134      V     C        14:02:04:07 14:02:08:22 01:15:13:08 01:15:17:23 
* FROM CLIP NAME:  026D/03 
152  135      V     C        15:00:47:11 15:00:49:13 01:15:17:23 01:15:20:00 
* FROM CLIP NAME:  027B/01_SER 
153  133      V     C        13:09:55:19 13:09:57:19 01:15:20:00 01:15:22:00 
* FROM CLIP NAME:  026D/01 
154  135      V     C        15:01:51:00 15:01:52:23 01:15:22:00 01:15:23:23 
* FROM CLIP NAME:  027B/01_SER 
155  135      V     C        15:03:22:13 15:03:24:03 01:15:23:23 01:15:25:13 
* FROM CLIP NAME:  027B/01_SER 
156  135      V     C        15:03:24:21 15:03:25:06 01:15:25:13 01:15:25:23 
* FROM CLIP NAME:  027B/01_SER 
157  135      V     C        15:03:42:08 15:03:43:19 01:15:25:23 01:15:27:09 
* FROM CLIP NAME:  027B/01_SER 
158  079      V     C        19:04:16:00 19:04:21:07 01:15:27:09 01:15:32:16 
* FROM CLIP NAME:  028A/05 
159  079      V     C        19:03:02:17 19:03:07:01 01:15:32:16 01:15:37:00 
* FROM CLIP NAME:  028A/04_PT1 
160  079      V     C        19:04:23:06 19:04:26:05 01:15:37:00 01:15:39:24 
* FROM CLIP NAME:  028A/05 
161  079      V     C        19:03:08:01 19:03:12:22 01:15:39:24 01:15:44:20 
* FROM CLIP NAME:  028A/04_PT1 
162  079      V     C        19:04:29:07 19:04:31:06 01:15:44:20 01:15:46:19 
* FROM CLIP NAME:  028A/05 
163  079      V     C        19:03:17:22 19:03:20:01 01:15:46:19 01:15:48:23 
* FROM CLIP NAME:  028A/04_PT1 
164  079      V     C        19:04:33:23 19:04:37:06 01:15:48:23 01:15:52:06 
* FROM CLIP NAME:  028A/05 
165  079      V     C        19:02:04:21 19:02:11:00 01:15:52:06 01:15:58:10 
* FROM CLIP NAME:  028A/02 
166  074      V     C        14:05:08:14 14:05:15:03 01:15:58:10 01:16:04:24 
* FROM CLIP NAME:  036Z2/01 
167  074      V     C        14:05:19:13 14:05:25:14 01:16:04:24 01:16:11:00 
* FROM CLIP NAME:  036Z2/02 
168  030      V     C        10:04:25:03 10:04:41:06 01:16:11:00 01:16:27:03 
* FROM CLIP NAME:  030B/01 
169  032      V     C        12:01:12:14 12:01:21:01 01:16:27:03 01:16:35:15 
* FROM CLIP NAME:  030D/02 
170  030      V     C        10:08:27:06 10:08:53:01 01:16:35:15 01:17:01:10 
* FROM CLIP NAME:  030B/04_PT 
171  031      V     C        11:07:53:16 11:07:57:24 01:17:01:10 01:17:05:18 
* FROM CLIP NAME:  030C/05_PT 
172  030      V     C        10:05:29:02 10:05:34:10 01:17:05:18 01:17:11:01 
* FROM CLIP NAME:  030B/01 
173  031      V     C        11:09:35:12 11:09:43:18 01:17:11:01 01:17:19:07 
* FROM CLIP NAME:  030C/06_PT 
174  030      V     C        10:03:55:15 10:03:59:04 01:17:19:07 01:17:22:21 
* FROM CLIP NAME:  030A/03 
175  031      V     C        11:02:11:14 11:02:13:15 01:17:22:21 01:17:24:22 
* FROM CLIP NAME:  030B/08_PT 
176  031      V     C        11:09:57:06 11:09:58:23 01:17:24:22 01:17:26:14 
* FROM CLIP NAME:  030C/06_PT 
177  030      V     C        10:04:02:24 10:04:04:09 01:17:26:14 01:17:27:24 
* FROM CLIP NAME:  030A/03 
178  053      V     C        13:10:58:02 13:11:04:06 01:17:27:24 01:17:34:03 
* FROM CLIP NAME:  031A/04_MS 
179  053      V     C        13:12:05:22 13:12:10:13 01:17:34:03 01:17:38:19 
* FROM CLIP NAME:  031B/01 
180  053      V     C        13:11:09:15 13:11:11:12 01:17:38:19 01:17:40:16 
* FROM CLIP NAME:  031A/04_MS 
181  032      V     C        12:05:47:23 12:06:15:22 01:17:40:16 01:18:08:15 
* FROM CLIP NAME:  032A/06 
182     AX    V     C        00:00:00:00 00:00:07:17 01:18:08:15 01:18:16:07 
* FROM CLIP NAME:  TAIL LEADER MIXDOWN DV25 
