TITLE: RSG-BLACK-1
FCM: DROP FRAME

001        BL AA/V  C        00:00:00:00 00:00:00:00 01:00:00:00 01:00:00:00  
FCM: NON-DROP FRAME
001        AX AA/V  D    030 00:00:28:06 00:01:33:19 01:00:00:00 01:01:05:15  
* EFFECT NAME: CROSS DISSOLVE
* TO CLIP NAME:  BHD-3IVX.MOV
* EFFECT NAME: CROSS FADE (+3DB)
* TO CLIP NAME:  BHD.MP3

002        AX AA/V  C        00:01:33:19 00:01:33:19 01:01:05:15 01:01:05:15  
002        AX AA/V  D    030 00:01:43:22 00:03:00:09 01:01:05:15 01:02:22:04  
* EFFECT NAME: CROSS DISSOLVE
* FROM CLIP NAME:  BHD-3IVX.MOV
* TO CLIP NAME:  BHD-3IVX.MOV
* EFFECT NAME: CROSS FADE (+3DB)
* FROM CLIP NAME:  BHD.MP3
* TO CLIP NAME:  BHD.MP3

003        AX AA/V  C        00:03:11:10 00:03:18:05 01:02:22:04 01:02:28:29  
* FROM CLIP NAME:  BHD-3IVX.MOV
* FROM CLIP NAME:  BHD.MP3

004        AX AA/V  C        00:03:18:05 00:03:34:06 01:02:28:29 01:02:45:00  
* FROM CLIP NAME:  BHD-3IVX.MOV
* FROM CLIP NAME:  BHD.MP3

005        AX V     C        00:03:37:29 00:04:03:01 01:02:45:00 01:03:10:04  
* FROM CLIP NAME:  BHD-3IVX.MOV

FCM: DROP FRAME
006        AX AA    C        00:03:38:05 00:04:01:07 01:02:45:00 01:03:08:02  
006        BL AA    D    030 00:00:00:00 00:00:01:00 01:03:08:02 01:03:09:02  
* EFFECT NAME: CROSS FADE (+3DB)
* FROM CLIP NAME:  BHD.MP3

007        BL NONE  C        00:00:00:00 00:00:00:00 01:03:08:01 01:03:08:01  
007        AX NONE  D    030 00:03:51:22 00:03:56:03 01:03:08:01 01:03:12:12  
* EFFECT NAME: CROSS FADE (+3DB)
* TO CLIP NAME:  BHD.MP3
AUD   3     4                                                                 

FCM: NON-DROP FRAME
008        AX V     C        00:04:05:08 00:04:06:23 01:03:10:04 01:03:11:19  
* FROM CLIP NAME:  BHD-3IVX.MOV

009        AX V     C        00:04:10:15 00:04:22:21 01:03:11:19 01:03:23:25  
* FROM CLIP NAME:  BHD-3IVX.MOV

FCM: DROP FRAME
010        AX NONE  C        00:03:56:03 00:03:56:03 01:03:12:12 01:03:12:12  
010        BL NONE  D    030 00:00:00:00 00:00:01:00 01:03:12:12 01:03:13:12  
* EFFECT NAME: CROSS FADE (+3DB)
* FROM CLIP NAME:  BHD.MP3
AUD   3     4                                                                 

011        AX AA    C        00:04:12:01 00:04:20:26 01:03:13:01 01:03:21:26  
* FROM CLIP NAME:  BHD.MP3

012        AX AA    C        00:04:40:00 00:05:03:25 01:03:21:26 01:03:45:19  
* FROM CLIP NAME:  BHD.MP3

FCM: NON-DROP FRAME
013        AX V     C        00:04:41:25 00:05:01:26 01:03:23:25 01:03:43:26  
* FROM CLIP NAME:  BHD-3IVX.MOV

014        AX V     C        00:05:03:13 00:05:05:06 01:03:43:26 01:03:45:19  
* FROM CLIP NAME:  BHD-3IVX.MOV

015        AX V     C        00:05:11:05 00:05:15:20 01:03:45:19 01:03:50:04  
* FROM CLIP NAME:  BHD-3IVX.MOV

FCM: DROP FRAME
016        AX AA    C        00:05:11:11 00:05:15:26 01:03:45:19 01:03:50:04  
* FROM CLIP NAME:  BHD.MP3

FCM: NON-DROP FRAME
017        AX V     C        00:05:17:19 00:05:19:18 01:03:50:04 01:03:52:03  
* FROM CLIP NAME:  BHD-3IVX.MOV

FCM: DROP FRAME
018        AX AA    C        00:05:17:25 00:05:19:24 01:03:50:04 01:03:52:03  
* FROM CLIP NAME:  BHD.MP3

FCM: NON-DROP FRAME
019        AX V     C        00:05:21:11 00:05:33:22 01:03:52:03 01:04:04:16  
* FROM CLIP NAME:  BHD-3IVX.MOV

FCM: DROP FRAME
020        AX AA    C        00:05:21:17 00:05:36:12 01:03:52:03 01:04:07:00  
* FROM CLIP NAME:  BHD.MP3

021        AX NONE  C        00:05:19:24 00:05:20:17 01:03:52:03 01:03:52:26  
021        BL NONE  D    030 00:00:00:00 00:00:01:00 01:03:52:26 01:03:53:26  
* EFFECT NAME: CROSS FADE (+3DB)
* FROM CLIP NAME:  BHD.MP3
AUD   3     4                                                                 

FCM: NON-DROP FRAME
022        AX V     C        00:05:35:03 00:05:37:17 01:04:04:16 01:04:07:00  
* FROM CLIP NAME:  BHD-3IVX.MOV

023        AX V     C        00:05:42:17 00:06:12:23 01:04:07:00 01:04:37:06  
* FROM CLIP NAME:  BHD-3IVX.MOV

FCM: DROP FRAME
024        AX AA    C        00:05:42:23 00:06:13:01 01:04:07:00 01:04:37:06  
* FROM CLIP NAME:  BHD.MP3

FCM: NON-DROP FRAME
025        AX V     C        00:06:16:28 00:06:22:07 01:04:37:06 01:04:42:15  
* FROM CLIP NAME:  BHD-3IVX.MOV

FCM: DROP FRAME
026        AX AA    C        00:06:17:06 00:06:22:15 01:04:37:06 01:04:42:15  
* FROM CLIP NAME:  BHD.MP3

FCM: NON-DROP FRAME
027        AX V     C        00:06:30:13 00:06:43:06 01:04:42:15 01:04:55:08  
* FROM CLIP NAME:  BHD-3IVX.MOV

FCM: DROP FRAME
028        AX AA    C        00:06:30:13 00:06:43:06 01:04:42:15 01:04:55:08  
* FROM CLIP NAME:  BHD.MP3

029        AX NONE  C        00:06:47:18 00:06:49:10 01:04:51:20 01:04:53:12  
* FROM CLIP NAME:  BHD.MP3
AUD   3     4                                                                 

030        AX NONE  C        00:06:51:04 00:06:53:00 01:04:53:12 01:04:55:08  
* FROM CLIP NAME:  BHD.MP3
AUD   3     4                                                                 

FCM: NON-DROP FRAME
031        AX V     C        00:06:56:13 00:07:00:28 01:04:55:08 01:04:59:23  
* FROM CLIP NAME:  BHD-3IVX.MOV

FCM: DROP FRAME
032        AX AA    C        00:06:56:13 00:07:01:00 01:04:55:08 01:04:59:23  
* FROM CLIP NAME:  BHD.MP3

FCM: NON-DROP FRAME
033        AX V     C        00:07:05:01 00:07:07:28 01:04:59:23 01:05:02:22  
* FROM CLIP NAME:  BHD-3IVX.MOV

FCM: DROP FRAME
034        AX AA    C        00:07:05:03 00:07:08:00 01:04:59:23 01:05:02:22  
* FROM CLIP NAME:  BHD.MP3

FCM: NON-DROP FRAME
035        AX V     C        00:07:15:18 00:07:21:00 01:05:02:22 01:05:08:04  
* FROM CLIP NAME:  BHD-3IVX.MOV

FCM: DROP FRAME
036        AX AA    C        00:07:15:20 00:07:21:02 01:05:02:22 01:05:08:04  
* FROM CLIP NAME:  BHD.MP3

FCM: NON-DROP FRAME
037        AX V     C        00:07:27:05 00:07:49:11 01:05:08:04 01:05:30:10  
* FROM CLIP NAME:  BHD-3IVX.MOV

FCM: DROP FRAME
038        AX AA    C        00:07:27:07 00:07:49:13 01:05:08:04 01:05:30:10  
* FROM CLIP NAME:  BHD.MP3

FCM: NON-DROP FRAME
039        AX V     C        00:08:00:10 00:08:05:15 01:05:30:10 01:05:35:15  
* FROM CLIP NAME:  BHD-3IVX.MOV

FCM: DROP FRAME
040        AX AA    C        00:08:00:14 00:08:03:11 01:05:30:10 01:05:33:07  
* FROM CLIP NAME:  BHD.MP3

041        AX NONE  C        00:08:13:20 00:08:15:28 01:05:32:16 01:05:34:24  
* FROM CLIP NAME:  BHD.MP3
AUD   3     4                                                                 

042        AX NONE  C        00:08:17:02 00:08:17:23 01:05:34:24 01:05:35:15  
* FROM CLIP NAME:  BHD.MP3
AUD   3     4                                                                 

FCM: NON-DROP FRAME
043        AX V     C        00:08:17:19 00:08:35:01 01:05:35:15 01:05:52:27  
* FROM CLIP NAME:  BHD-3IVX.MOV

FCM: DROP FRAME
044        AX AA    C        00:08:17:23 00:08:35:05 01:05:35:15 01:05:52:27  
* FROM CLIP NAME:  BHD.MP3

FCM: NON-DROP FRAME
045        AX V     C        00:08:40:07 00:08:50:03 01:05:52:27 01:06:02:25  
* FROM CLIP NAME:  BHD-3IVX.MOV

FCM: DROP FRAME
046        AX AA    C        00:08:40:11 00:08:50:07 01:05:52:27 01:06:02:25  
* FROM CLIP NAME:  BHD.MP3

FCM: NON-DROP FRAME
047        AX V     C        00:08:58:08 00:08:59:13 01:06:02:25 01:06:04:00  
* FROM CLIP NAME:  BHD-3IVX.MOV

FCM: DROP FRAME
048        AX AA    C        00:07:03:29 00:07:07:05 01:06:02:25 01:06:06:01  
048        AX AA    D    030 00:19:26:26 00:19:46:04 01:06:06:01 01:06:25:09  
* EFFECT NAME: CROSS FADE (+3DB)
* FROM CLIP NAME:  BHD.MP3
* TO CLIP NAME:  BHD.MP3

FCM: NON-DROP FRAME
049        AX V     C        00:09:00:02 00:09:02:03 01:06:04:00 01:06:06:01  
049        AX V     D    030 00:19:25:20 00:19:38:05 01:06:06:01 01:06:18:16  
* EFFECT NAME: CROSS DISSOLVE
* FROM CLIP NAME:  BHD-3IVX.MOV
* TO CLIP NAME:  BHD-3IVX.MOV

050        AX V     C        00:19:38:05 00:19:44:28 01:06:18:16 01:06:25:09  
* FROM CLIP NAME:  BHD-3IVX.MOV

051        AX V     C        00:18:07:13 00:18:11:23 01:06:25:09 01:06:29:19  
* FROM CLIP NAME:  BHD-3IVX.MOV

FCM: DROP FRAME
052        AX AA    C        00:19:46:04 00:19:57:26 01:06:25:09 01:06:37:01  
052        AX AA    D    030 00:19:28:20 00:19:30:12 01:06:37:01 01:06:38:23  
* EFFECT NAME: CROSS FADE (+3DB)
* FROM CLIP NAME:  BHD.MP3
* AUDIO LEVEL AT 00:19:46;04 IS -7.00 DB  (REEL AX A1)
* AUDIO LEVEL AT 00:19:46;04 IS -7.00 DB  (REEL AX A2)
* TO CLIP NAME:  BHD.MP3
* AUDIO LEVEL AT 00:19:28;20 IS -7.00 DB  (REEL AX A2)

053        AX NONE  C        00:18:07:20 00:18:15:13 01:06:25:09 01:06:33:02  
* FROM CLIP NAME:  BHD.MP3
AUD   4                                                                       

FCM: NON-DROP FRAME
054        AX V     C        00:19:48:09 00:19:50:12 01:06:29:19 01:06:31:22  
* FROM CLIP NAME:  BHD-3IVX.MOV

055        AX V     C        00:18:13:26 00:18:15:06 01:06:31:22 01:06:33:02  
* FROM CLIP NAME:  BHD-3IVX.MOV

056        AX V     C        00:19:44:28 00:19:47:27 01:06:33:02 01:06:36:01  
* FROM CLIP NAME:  BHD-3IVX.MOV

FCM: DROP FRAME
057        AX NONE  C        00:18:33:25 00:18:39:03 01:06:34:20 01:06:39:28  
* FROM CLIP NAME:  BHD.MP3
AUD   4                                                                       

FCM: NON-DROP FRAME
058        AX V     C        00:18:35:01 00:18:38:08 01:06:36:01 01:06:39:08  
* FROM CLIP NAME:  BHD-3IVX.MOV

FCM: DROP FRAME
059        AX AA    C        00:19:30:12 00:19:30:12 01:06:38:23 01:06:38:23  
059        AX AA    D    030 00:19:30:12 00:19:37:01 01:06:38:23 01:06:45:12  
* EFFECT NAME: CROSS FADE (+3DB)
* FROM CLIP NAME:  BHD.MP3
* AUDIO LEVEL AT 00:19:30;12 IS -7.00 DB  (REEL AX A1)
* AUDIO LEVEL AT 00:19:30;12 IS -7.00 DB  (REEL AX A2)
* TO CLIP NAME:  BHD.MP3

FCM: NON-DROP FRAME
060        AX V     C        00:19:51:01 00:19:57:05 01:06:39:08 01:06:45:12  
* FROM CLIP NAME:  BHD-3IVX.MOV

061        AX V     C        00:20:42:11 00:21:12:12 01:06:45:12 01:07:15:15  
* FROM CLIP NAME:  BHD-3IVX.MOV

FCM: DROP FRAME
062        AX AA    C        00:20:42:12 00:21:17:19 01:06:45:12 01:07:20:19  
* FROM CLIP NAME:  BHD.MP3

FCM: NON-DROP FRAME
063        AX V     C        00:21:36:22 00:21:39:02 01:07:15:15 01:07:17:25  
* FROM CLIP NAME:  BHD-3IVX.MOV

064        AX V     C        00:21:41:14 00:21:44:08 01:07:17:25 01:07:20:19  
* FROM CLIP NAME:  BHD-3IVX.MOV

065        AX V     C        00:24:33:27 00:24:50:03 01:07:20:19 01:07:36:25  
* FROM CLIP NAME:  BHD-3IVX.MOV

FCM: DROP FRAME
066        AX AA    C        00:24:33:27 00:24:50:03 01:07:20:19 01:07:36:25  
* FROM CLIP NAME:  BHD.MP3

FCM: NON-DROP FRAME
067        AX V     C        00:29:42:29 00:29:52:12 01:07:36:25 01:07:46:08  
* FROM CLIP NAME:  BHD-3IVX.MOV

FCM: DROP FRAME
068        AX AA    C        00:29:43:02 00:29:52:15 01:07:36:25 01:07:46:08  
* FROM CLIP NAME:  BHD.MP3

FCM: NON-DROP FRAME
069        AX V     C        00:29:55:21 00:29:58:09 01:07:46:08 01:07:48:26  
* FROM CLIP NAME:  BHD-3IVX.MOV

FCM: DROP FRAME
070        AX AA    C        00:29:55:24 00:29:58:12 01:07:46:08 01:07:48:26  
* FROM CLIP NAME:  BHD.MP3

FCM: NON-DROP FRAME
071        AX V     C        00:30:02:16 00:30:10:23 01:07:48:26 01:07:57:03  
* FROM CLIP NAME:  BHD-3IVX.MOV

FCM: DROP FRAME
072        AX AA    C        00:30:02:18 00:30:10:25 01:07:48:26 01:07:57:03  
* FROM CLIP NAME:  BHD.MP3

FCM: NON-DROP FRAME
073        AX V     C        00:30:18:15 00:30:22:03 01:07:57:03 01:08:00:23  
* FROM CLIP NAME:  BHD-3IVX.MOV

FCM: DROP FRAME
074        AX AA    C        00:30:28:11 00:30:35:12 01:07:57:03 01:08:04:06  
* FROM CLIP NAME:  BHD.MP3

075        BL NONE  C        00:00:00:00 00:00:00:00 01:07:59:27 01:07:59:27  
075        AX NONE  D    127 00:31:55:08 00:31:59:15 01:07:59:27 01:08:04:06  
* EFFECT NAME: CROSS FADE (+3DB)
AUD   3     4                                                                 

FCM: NON-DROP FRAME
076        AX V     C        00:30:31:17 00:30:35:00 01:08:00:23 01:08:04:06  
* FROM CLIP NAME:  BHD-3IVX.MOV

077        AX AA/V  C        00:31:57:19 00:32:18:11 01:08:04:06 01:08:24:28  
* FROM CLIP NAME:  BHD-3IVX.MOV
* FROM CLIP NAME:  BHD.MP3

078        AX V     C        00:32:28:21 00:32:48:17 01:08:24:28 01:08:44:24  
* FROM CLIP NAME:  BHD-3IVX.MOV

FCM: DROP FRAME
079        AX AA    C        00:32:28:23 00:32:48:19 01:08:24:28 01:08:44:24  
* FROM CLIP NAME:  BHD.MP3

FCM: NON-DROP FRAME
080        AX V     C        00:32:56:28 00:33:05:19 01:08:44:24 01:08:53:15  
* FROM CLIP NAME:  BHD-3IVX.MOV

FCM: DROP FRAME
081        AX NONE  C        00:32:57:01 00:33:08:06 01:08:44:24 01:08:55:27  
* FROM CLIP NAME:  BHD.MP3
AUD   3     4                                                                 

082        BL AA    C        00:00:00:00 00:00:00:00 01:08:52:11 01:08:52:11  
082        AX AA    D    030 00:34:08:28 00:34:10:02 01:08:52:11 01:08:53:15  
* EFFECT NAME: CROSS FADE (+3DB)
* TO CLIP NAME:  BHD.MP3

FCM: NON-DROP FRAME
083        AX V     C        00:34:10:06 00:34:20:17 01:08:53:15 01:09:03:28  
* FROM CLIP NAME:  BHD-3IVX.MOV

FCM: DROP FRAME
084        AX AA    C        00:34:10:02 00:34:19:00 01:08:53:15 01:09:02:15  
* FROM CLIP NAME:  BHD.MP3

085        AX AA    C        00:34:19:00 00:34:19:13 01:09:02:15 01:09:02:28  
085        AX AA    D    030 00:34:33:22 00:34:46:19 01:09:02:28 01:09:15:25  
* EFFECT NAME: CROSS FADE (+3DB)
* FROM CLIP NAME:  BHD.MP3
* TO CLIP NAME:  BHD.MP3

086        BL NONE  C        00:00:00:00 00:00:00:00 01:09:02:18 01:09:02:18  
086        AX NONE  D    030 00:34:32:12 00:34:33:22 01:09:02:18 01:09:03:28  
* EFFECT NAME: CROSS FADE (+3DB)
* TO CLIP NAME:  BHD.MP3
AUD   3     4                                                                 

FCM: NON-DROP FRAME
087        AX V     C        00:34:33:26 00:34:47:23 01:09:03:28 01:09:17:25  
* FROM CLIP NAME:  BHD-3IVX.MOV

FCM: DROP FRAME
088        BL NONE  C        00:00:00:00 00:00:00:00 01:09:12:22 01:09:12:22  
088        AX NONE  D    090 00:36:43:20 00:36:48:23 01:09:12:22 01:09:17:25  
* EFFECT NAME: CROSS FADE (+3DB)
* TO CLIP NAME:  BHD.MP3
AUD   3     4                                                                 

089        AX AA    C        00:34:45:19 00:34:45:19 01:09:15:25 01:09:15:25  
089        AX AA    D    060 00:36:48:23 00:37:33:17 01:09:15:25 01:10:00:17  
* EFFECT NAME: CROSS FADE (+3DB)
* FROM CLIP NAME:  BHD.MP3
* TO CLIP NAME:  BHD.MP3

FCM: NON-DROP FRAME
090        AX V     C        00:36:42:18 00:36:49:04 01:09:17:25 01:09:24:11  
* FROM CLIP NAME:  BHD-3IVX.MOV

091        AX V     C        00:36:55:09 00:37:31:15 01:09:24:11 01:10:00:17  
* FROM CLIP NAME:  BHD-3IVX.MOV

092        AX V     C        00:37:34:27 00:37:58:04 01:10:00:17 01:10:23:24  
* FROM CLIP NAME:  BHD-3IVX.MOV

FCM: DROP FRAME
093        AX AA    C        00:37:34:29 00:37:55:21 01:10:00:17 01:10:21:09  
093        BL AA    D    150 00:00:00:00 00:00:05:00 01:10:21:09 01:10:26:09  
* EFFECT NAME: CROSS FADE (+3DB)
* FROM CLIP NAME:  BHD.MP3

094        BL NONE  C        00:00:00:00 00:00:00:00 01:10:22:09 01:10:22:09  
094        AX NONE  D    090 00:38:53:02 00:39:15:14 01:10:22:09 01:10:44:19  
* EFFECT NAME: CROSS FADE (+3DB)
* TO CLIP NAME:  BHD.MP3
AUD   3     4                                                                 

FCM: NON-DROP FRAME
095        AX V     C        00:38:52:28 00:39:14:01 01:10:23:24 01:10:44:27  
* FROM CLIP NAME:  BHD-3IVX.MOV

FCM: DROP FRAME
096        AX NONE  C        00:39:15:14 00:39:15:14 01:10:44:19 01:10:44:19  
096        BL NONE  D    030 00:00:00:00 00:00:01:00 01:10:44:19 01:10:45:19  
* EFFECT NAME: CROSS FADE (+3DB)
* FROM CLIP NAME:  BHD.MP3
AUD   3     4                                                                 

FCM: NON-DROP FRAME
097        AX V     C        00:40:31:21 00:40:33:17 01:10:44:27 01:10:46:23  
* FROM CLIP NAME:  BHD-3IVX.MOV

FCM: DROP FRAME
098        BL AA    C        00:00:00:00 00:00:00:00 01:10:45:03 01:10:45:03  
098        AX AA    D    030 00:50:53:02 00:50:54:22 01:10:45:03 01:10:46:23  
* EFFECT NAME: CROSS FADE (+3DB)
* TO CLIP NAME:  BHD.MP3

FCM: NON-DROP FRAME
099        AX V     C        00:50:53:28 00:51:20:01 01:10:46:23 01:11:12:28  
* FROM CLIP NAME:  BHD-3IVX.MOV

FCM: DROP FRAME
100        AX AA    C        00:50:54:22 00:51:20:27 01:10:46:23 01:11:12:28  
* FROM CLIP NAME:  BHD.MP3

FCM: NON-DROP FRAME
101        AX V     C        00:51:24:25 00:51:28:02 01:11:12:28 01:11:16:05  
* FROM CLIP NAME:  BHD-3IVX.MOV

FCM: DROP FRAME
102        AX NONE  C        00:51:25:00 00:51:30:09 01:11:12:28 01:11:18:07  
102        BL NONE  D    150 00:00:00:00 00:00:05:00 01:11:18:07 01:11:23:07  
* EFFECT NAME: CROSS FADE (+3DB)
* FROM CLIP NAME:  BHD.MP3
AUD   3     4                                                                 

103        BL AA    C        00:00:00:00 00:00:00:00 01:11:20:19 01:11:20:19  
103        AX AA    D    030 00:53:18:20 00:53:27:01 01:11:20:19 01:11:29:00  
* EFFECT NAME: CROSS FADE (+3DB)
* TO CLIP NAME:  BHD.MP3

FCM: NON-DROP FRAME
104        AX V     C        00:53:17:27 00:53:23:10 01:11:23:17 01:11:29:00  
* FROM CLIP NAME:  BHD-3IVX.MOV

FCM: DROP FRAME
105        BL NONE  C        00:00:00:00 00:00:00:00 01:11:25:21 01:11:25:21  
105        AX NONE  D    030 00:54:49:21 00:54:55:15 01:11:25:21 01:11:31:15  
* EFFECT NAME: CROSS FADE (+3DB)
* TO CLIP NAME:  BHD.MP3
AUD   3     4                                                                 

FCM: NON-DROP FRAME
106        AX V     C        00:54:45:27 00:54:48:27 01:11:29:00 01:11:32:00  
* FROM CLIP NAME:  BHD-3IVX.MOV

FCM: DROP FRAME
107        AX NONE  C        00:54:55:15 00:54:55:15 01:11:31:15 01:11:31:15  
107        BL NONE  D    030 00:00:00:00 00:00:01:00 01:11:31:15 01:11:32:15  
* EFFECT NAME: CROSS FADE (+3DB)
* FROM CLIP NAME:  BHD.MP3
AUD   3     4                                                                 

FCM: NON-DROP FRAME
108        AX V     C        00:55:05:13 00:55:06:17 01:11:32:00 01:11:33:04  
* FROM CLIP NAME:  BHD-3IVX.MOV

FCM: DROP FRAME
109        AX AA    C        00:55:11:19 00:55:14:15 01:11:32:00 01:11:34:26  
* FROM CLIP NAME:  BHD.MP3

FCM: NON-DROP FRAME
110        AX V     C        00:55:12:18 00:55:13:16 01:11:33:04 01:11:34:02  
* FROM CLIP NAME:  BHD-3IVX.MOV

111        AX V     C        00:55:33:08 00:55:34:02 01:11:34:02 01:11:34:26  
* FROM CLIP NAME:  BHD-3IVX.MOV

112        AX V     C        00:56:43:09 00:56:44:15 01:11:34:26 01:11:36:02  
* FROM CLIP NAME:  BHD-3IVX.MOV

FCM: DROP FRAME
113        AX AA    C        00:56:46:07 00:56:58:00 01:11:34:26 01:11:46:19  
113        BL AA    D    150 00:00:00:00 00:00:05:00 01:11:46:19 01:11:51:19  
* EFFECT NAME: CROSS FADE (+3DB)
* FROM CLIP NAME:  BHD.MP3

114        AX NONE  C        00:56:43:19 00:56:45:12 01:11:34:26 01:11:36:19  
* FROM CLIP NAME:  BHD.MP3
AUD   3     4                                                                 

FCM: NON-DROP FRAME
115        AX V     C        00:56:47:11 00:56:49:19 01:11:36:02 01:11:38:10  
* FROM CLIP NAME:  BHD-3IVX.MOV

116        AX V     C        00:56:51:19 00:56:52:24 01:11:38:10 01:11:39:15  
* FROM CLIP NAME:  BHD-3IVX.MOV

117        AX V     C        00:56:58:05 00:56:59:18 01:11:39:15 01:11:40:28  
* FROM CLIP NAME:  BHD-3IVX.MOV

118        AX V     C        00:57:05:17 00:57:06:14 01:11:40:28 01:11:41:25  
* FROM CLIP NAME:  BHD-3IVX.MOV

119        AX V     C        00:58:02:20 00:58:12:17 01:11:41:25 01:11:51:22  
* FROM CLIP NAME:  BHD-3IVX.MOV

FCM: DROP FRAME
120        BL NONE  C        00:00:00:00 00:00:00:00 01:11:47:05 01:11:47:05  
120        AX NONE  D    137 00:58:32:06 00:58:36:23 01:11:47:05 01:11:51:22  
* EFFECT NAME: CROSS FADE (+3DB)
AUD   3     4                                                                 

FCM: NON-DROP FRAME
121        AX V     C        00:58:36:21 00:58:41:23 01:11:51:22 01:11:56:24  
* FROM CLIP NAME:  BHD-3IVX.MOV

FCM: DROP FRAME
122        AX AA    C        00:58:36:23 00:58:49:19 01:11:51:22 01:12:04:20  
* FROM CLIP NAME:  BHD.MP3

FCM: NON-DROP FRAME
123        AX V     C        00:58:46:01 00:58:47:00 01:11:56:24 01:11:57:23  
* FROM CLIP NAME:  BHD-3IVX.MOV

124        AX V     C        00:58:47:29 00:58:49:20 01:11:57:23 01:11:59:14  
* FROM CLIP NAME:  BHD-3IVX.MOV

125        AX V     C        00:58:52:20 00:58:54:23 01:11:59:14 01:12:01:19  
* FROM CLIP NAME:  BHD-3IVX.MOV

FCM: DROP FRAME
126        AX NONE  C        00:58:53:02 00:58:55:05 01:11:59:14 01:12:01:19  
* FROM CLIP NAME:  BHD.MP3
AUD   3     4                                                                 

FCM: NON-DROP FRAME
127        AX V     C        00:58:58:08 00:58:59:07 01:12:01:19 01:12:02:18  
* FROM CLIP NAME:  BHD-3IVX.MOV

FCM: DROP FRAME
128        AX NONE  C        00:58:59:18 00:59:00:19 01:12:01:19 01:12:02:18  
* FROM CLIP NAME:  BHD.MP3
AUD   3     4                                                                 

FCM: NON-DROP FRAME
129        AX V     C        00:59:28:14 00:59:29:18 01:12:02:18 01:12:03:22  
* FROM CLIP NAME:  BHD-3IVX.MOV

FCM: DROP FRAME
130        AX NONE  C        00:59:27:09 00:59:28:13 01:12:02:18 01:12:03:22  
* FROM CLIP NAME:  BHD.MP3
AUD   3     4                                                                 

FCM: NON-DROP FRAME
131        AX V     C        00:59:44:09 00:59:45:07 01:12:03:22 01:12:04:20  
* FROM CLIP NAME:  BHD-3IVX.MOV

FCM: DROP FRAME
132        AX NONE  C        00:59:44:08 00:59:45:06 01:12:03:22 01:12:04:20  
* FROM CLIP NAME:  BHD.MP3
AUD   3     4                                                                 

FCM: NON-DROP FRAME
133        AX V     C        01:00:23:29 01:00:27:17 01:12:04:20 01:12:08:08  
* FROM CLIP NAME:  BHD-3IVX.MOV

FCM: DROP FRAME
134        AX AA    C        01:00:24:01 01:00:27:19 01:12:04:20 01:12:08:08  
* FROM CLIP NAME:  BHD.MP3

FCM: NON-DROP FRAME
135        AX V     C        01:00:29:23 01:00:31:08 01:12:08:08 01:12:09:23  
* FROM CLIP NAME:  BHD-3IVX.MOV

FCM: DROP FRAME
136        AX AA    C        01:00:29:25 01:00:31:10 01:12:08:08 01:12:09:23  
* FROM CLIP NAME:  BHD.MP3

FCM: NON-DROP FRAME
137        AX V     C        01:00:43:23 01:00:45:16 01:12:09:23 01:12:11:16  
* FROM CLIP NAME:  BHD-3IVX.MOV

FCM: DROP FRAME
138        AX AA    C        01:00:43:25 01:00:45:18 01:12:09:23 01:12:11:16  
* FROM CLIP NAME:  BHD.MP3

FCM: NON-DROP FRAME
139        AX V     C        01:00:56:00 01:00:57:10 01:12:11:16 01:12:12:26  
* FROM CLIP NAME:  BHD-3IVX.MOV

FCM: DROP FRAME
140        AX AA    C        01:00:56:01 01:00:57:11 01:12:11:16 01:12:12:26  
* FROM CLIP NAME:  BHD.MP3

FCM: NON-DROP FRAME
141        AX V     C        01:00:58:14 01:01:03:09 01:12:12:26 01:12:17:21  
* FROM CLIP NAME:  BHD-3IVX.MOV

FCM: DROP FRAME
142        AX AA    C        01:00:58:15 01:01:03:12 01:12:12:26 01:12:17:21  
* FROM CLIP NAME:  BHD.MP3

FCM: NON-DROP FRAME
143        AX V     C        01:01:04:21 01:01:05:29 01:12:17:21 01:12:18:29  
* FROM CLIP NAME:  BHD-3IVX.MOV

FCM: DROP FRAME
144        AX AA    C        01:01:04:24 01:01:06:02 01:12:17:21 01:12:18:29  
* FROM CLIP NAME:  BHD.MP3

FCM: NON-DROP FRAME
145        AX V     C        01:01:07:07 01:01:08:05 01:12:18:29 01:12:19:27  
* FROM CLIP NAME:  BHD-3IVX.MOV

FCM: DROP FRAME
146        AX AA    C        01:01:07:10 01:01:08:08 01:12:18:29 01:12:19:27  
* FROM CLIP NAME:  BHD.MP3

FCM: NON-DROP FRAME
147        AX V     C        01:01:10:09 01:01:11:17 01:12:19:27 01:12:21:05  
* FROM CLIP NAME:  BHD-3IVX.MOV

FCM: DROP FRAME
148        AX AA    C        01:01:10:12 01:01:11:20 01:12:19:27 01:12:21:05  
* FROM CLIP NAME:  BHD.MP3

FCM: NON-DROP FRAME
149        AX V     C        01:01:13:11 01:01:18:02 01:12:21:05 01:12:25:26  
* FROM CLIP NAME:  BHD-3IVX.MOV

FCM: DROP FRAME
150        AX AA    C        01:01:13:14 01:01:18:05 01:12:21:05 01:12:25:26  
* FROM CLIP NAME:  BHD.MP3

FCM: NON-DROP FRAME
151        AX V     C        01:01:24:01 01:01:25:26 01:12:25:26 01:12:27:21  
* FROM CLIP NAME:  BHD-3IVX.MOV

FCM: DROP FRAME
152        AX AA    C        01:01:24:04 01:01:25:29 01:12:25:26 01:12:27:21  
* FROM CLIP NAME:  BHD.MP3

FCM: NON-DROP FRAME
153        AX V     C        01:01:46:14 01:01:51:09 01:12:27:21 01:12:32:16  
* FROM CLIP NAME:  BHD-3IVX.MOV

FCM: DROP FRAME
154        AX AA    C        01:01:46:17 01:01:51:12 01:12:27:21 01:12:32:16  
* FROM CLIP NAME:  BHD.MP3

FCM: NON-DROP FRAME
155        AX V     C        01:01:52:28 01:01:54:08 01:12:32:16 01:12:33:26  
* FROM CLIP NAME:  BHD-3IVX.MOV

FCM: DROP FRAME
156        AX AA    C        01:01:53:01 01:01:57:13 01:12:32:16 01:12:36:28  
* FROM CLIP NAME:  BHD.MP3

FCM: NON-DROP FRAME
157        AX V     C        01:01:55:26 01:01:58:28 01:12:33:26 01:12:36:28  
* FROM CLIP NAME:  BHD-3IVX.MOV

158        AX V     C        01:04:07:08 01:04:13:20 01:12:36:28 01:12:43:10  
* FROM CLIP NAME:  BHD-3IVX.MOV

FCM: DROP FRAME
159        AX AA    C        01:04:07:17 01:04:13:29 01:12:36:28 01:12:43:10  
* FROM CLIP NAME:  BHD.MP3

FCM: NON-DROP FRAME
160        AX V     C        01:05:58:19 01:06:07:10 01:12:43:10 01:12:52:01  
* FROM CLIP NAME:  BHD-3IVX.MOV

FCM: DROP FRAME
161        AX AA    C        01:05:58:25 01:06:07:18 01:12:43:10 01:12:52:01  
* FROM CLIP NAME:  BHD.MP3

FCM: NON-DROP FRAME
162        AX V     C        01:06:13:01 01:06:15:01 01:12:52:01 01:12:54:01  
* FROM CLIP NAME:  BHD-3IVX.MOV

FCM: DROP FRAME
163        AX AA    C        01:06:13:06 01:06:15:06 01:12:52:01 01:12:54:01  
* FROM CLIP NAME:  BHD.MP3

FCM: NON-DROP FRAME
164        AX V     C        01:07:02:17 01:07:04:11 01:12:54:01 01:12:55:25  
* FROM CLIP NAME:  BHD-3IVX.MOV

FCM: DROP FRAME
165        AX AA    C        01:07:02:24 01:07:04:18 01:12:54:01 01:12:55:25  
* FROM CLIP NAME:  BHD.MP3

FCM: NON-DROP FRAME
166        AX V     C        01:07:05:26 01:07:10:11 01:12:55:25 01:13:00:12  
* FROM CLIP NAME:  BHD-3IVX.MOV

FCM: DROP FRAME
167        AX AA    C        01:07:06:03 01:07:10:18 01:12:55:25 01:13:00:12  
* FROM CLIP NAME:  BHD.MP3

FCM: NON-DROP FRAME
168        AX V     C        01:07:23:03 01:07:27:09 01:13:00:12 01:13:04:18  
* FROM CLIP NAME:  BHD-3IVX.MOV

FCM: DROP FRAME
169        AX AA    C        01:07:23:06 01:07:27:12 01:13:00:12 01:13:04:18  
* FROM CLIP NAME:  BHD.MP3

FCM: NON-DROP FRAME
170        AX V     C        01:07:29:14 01:07:33:01 01:13:04:18 01:13:08:05  
* FROM CLIP NAME:  BHD-3IVX.MOV

FCM: DROP FRAME
171        AX AA    C        01:07:29:17 01:07:33:04 01:13:04:18 01:13:08:05  
* FROM CLIP NAME:  BHD.MP3

FCM: NON-DROP FRAME
172        AX V     C        01:07:40:22 01:07:43:01 01:13:08:05 01:13:10:14  
* FROM CLIP NAME:  BHD-3IVX.MOV

FCM: DROP FRAME
173        AX AA    C        01:07:40:25 01:07:43:04 01:13:08:05 01:13:10:14  
* FROM CLIP NAME:  BHD.MP3

FCM: NON-DROP FRAME
174        AX V     C        01:07:45:05 01:07:46:14 01:13:10:14 01:13:11:23  
* FROM CLIP NAME:  BHD-3IVX.MOV

FCM: DROP FRAME
175        AX AA    C        01:07:45:08 01:07:46:17 01:13:10:14 01:13:11:23  
* FROM CLIP NAME:  BHD.MP3

FCM: NON-DROP FRAME
176        AX V     C        01:07:55:29 01:07:56:25 01:13:11:23 01:13:12:19  
* FROM CLIP NAME:  BHD-3IVX.MOV

FCM: DROP FRAME
177        AX AA    C        01:07:56:02 01:07:56:28 01:13:11:23 01:13:12:19  
* FROM CLIP NAME:  BHD.MP3

FCM: NON-DROP FRAME
178        AX V     C        01:08:47:02 01:08:48:23 01:13:12:19 01:13:14:10  
* FROM CLIP NAME:  BHD-3IVX.MOV

FCM: DROP FRAME
179        AX AA    C        01:08:47:05 01:08:48:26 01:13:12:19 01:13:14:10  
* FROM CLIP NAME:  BHD.MP3

FCM: NON-DROP FRAME
180        AX V     C        01:08:52:22 01:08:54:21 01:13:14:10 01:13:16:09  
* FROM CLIP NAME:  BHD-3IVX.MOV

FCM: DROP FRAME
181        AX AA    C        01:08:52:25 01:08:54:24 01:13:14:10 01:13:16:09  
* FROM CLIP NAME:  BHD.MP3

FCM: NON-DROP FRAME
182        AX V     C        01:08:55:27 01:08:56:22 01:13:16:09 01:13:17:04  
* FROM CLIP NAME:  BHD-3IVX.MOV

FCM: DROP FRAME
183        AX AA    C        01:08:56:00 01:08:56:25 01:13:16:09 01:13:17:04  
* FROM CLIP NAME:  BHD.MP3

FCM: NON-DROP FRAME
184        AX V     C        01:09:04:13 01:09:05:11 01:13:17:04 01:13:18:02  
* FROM CLIP NAME:  BHD-3IVX.MOV

FCM: DROP FRAME
185        AX AA    C        01:09:04:17 01:09:05:15 01:13:17:04 01:13:18:02  
* FROM CLIP NAME:  BHD.MP3

FCM: NON-DROP FRAME
186        AX V     C        01:10:27:15 01:10:28:25 01:13:18:02 01:13:19:12  
* FROM CLIP NAME:  BHD-3IVX.MOV

FCM: DROP FRAME
187        AX AA    C        01:10:27:19 01:10:28:29 01:13:18:02 01:13:19:12  
* FROM CLIP NAME:  BHD.MP3

FCM: NON-DROP FRAME
188        AX V     C        01:10:31:14 01:10:32:27 01:13:19:12 01:13:20:25  
* FROM CLIP NAME:  BHD-3IVX.MOV

FCM: DROP FRAME
189        AX AA    C        01:10:31:18 01:10:33:01 01:13:19:12 01:13:20:25  
* FROM CLIP NAME:  BHD.MP3

FCM: NON-DROP FRAME
190        AX V     C        01:10:36:09 01:10:37:05 01:13:20:25 01:13:21:21  
* FROM CLIP NAME:  BHD-3IVX.MOV

FCM: DROP FRAME
191        AX AA    C        01:10:36:13 01:10:37:09 01:13:20:25 01:13:21:21  
* FROM CLIP NAME:  BHD.MP3

FCM: NON-DROP FRAME
192        AX V     C        01:10:42:20 01:10:44:03 01:13:21:21 01:13:23:04  
* FROM CLIP NAME:  BHD-3IVX.MOV

FCM: DROP FRAME
193        AX AA    C        01:10:42:24 01:10:44:07 01:13:21:21 01:13:23:04  
* FROM CLIP NAME:  BHD.MP3

FCM: NON-DROP FRAME
194        AX V     C        01:11:05:23 01:11:12:02 01:13:23:04 01:13:29:13  
* FROM CLIP NAME:  BHD-3IVX.MOV

FCM: DROP FRAME
195        AX AA    C        01:11:05:27 01:11:12:06 01:13:23:04 01:13:29:13  
* FROM CLIP NAME:  BHD.MP3

FCM: NON-DROP FRAME
196        AX V     C        01:11:14:29 01:11:15:16 01:13:29:13 01:13:30:00  
* FROM CLIP NAME:  BHD-3IVX.MOV

FCM: DROP FRAME
197        AX AA    C        01:11:15:03 01:11:15:20 01:13:29:13 01:13:30:00  
* FROM CLIP NAME:  BHD.MP3

FCM: NON-DROP FRAME
198        AX V     C        01:11:27:04 01:11:29:13 01:13:30:00 01:13:32:09  
* FROM CLIP NAME:  BHD-3IVX.MOV

FCM: DROP FRAME
199        AX AA    C        01:11:27:08 01:11:29:17 01:13:30:00 01:13:32:09  
* FROM CLIP NAME:  BHD.MP3

FCM: NON-DROP FRAME
200        AX V     C        01:11:35:09 01:11:42:24 01:13:32:09 01:13:39:24  
* FROM CLIP NAME:  BHD-3IVX.MOV

FCM: DROP FRAME
201        AX AA    C        01:11:35:13 01:11:42:28 01:13:32:09 01:13:39:24  
* FROM CLIP NAME:  BHD.MP3

FCM: NON-DROP FRAME
202        AX V     C        01:12:41:12 01:12:44:20 01:13:39:24 01:13:43:02  
* FROM CLIP NAME:  BHD-3IVX.MOV

FCM: DROP FRAME
203        AX AA    C        01:12:41:18 01:12:44:26 01:13:39:24 01:13:43:02  
* FROM CLIP NAME:  BHD.MP3

FCM: NON-DROP FRAME
204        AX V     C        01:12:47:28 01:12:52:05 01:13:43:02 01:13:47:09  
FCM: DROP FRAME
204        BL V     D    044 00:00:00:00 00:00:01:14 01:13:47:09 01:13:48:23  
* EFFECT NAME: CROSS DISSOLVE
* FROM CLIP NAME:  BHD-3IVX.MOV

205        AX AA    C        01:12:48:04 01:12:53:10 01:13:43:02 01:13:48:08  
205        AX AA    D    030 01:16:01:11 01:16:18:02 01:13:48:08 01:14:05:01  
* EFFECT NAME: CROSS FADE (+3DB)
* FROM CLIP NAME:  BHD.MP3
* TO CLIP NAME:  BHD.MP3

206        BL V     C        00:00:00:00 00:00:00:00 01:13:48:23 01:13:48:23  
FCM: NON-DROP FRAME
206        AX V     D    030 01:16:01:18 01:16:17:24 01:13:48:23 01:14:05:01  
* EFFECT NAME: CROSS DISSOLVE
* TO CLIP NAME:  BHD-3IVX.MOV

207        AX V     C        01:22:25:02 01:22:26:23 01:14:05:01 01:14:06:22  
* FROM CLIP NAME:  BHD-3IVX.MOV

FCM: DROP FRAME
208        AX AA    C        01:22:25:04 01:22:26:25 01:14:05:01 01:14:06:22  
* FROM CLIP NAME:  BHD.MP3

FCM: NON-DROP FRAME
209        AX V     C        01:22:28:01 01:22:29:28 01:14:06:22 01:14:08:19  
* FROM CLIP NAME:  BHD-3IVX.MOV

FCM: DROP FRAME
210        AX AA    C        01:22:28:03 01:22:30:00 01:14:06:22 01:14:08:19  
* FROM CLIP NAME:  BHD.MP3

FCM: NON-DROP FRAME
211        AX V     C        01:22:43:23 01:22:44:17 01:14:08:19 01:14:09:13  
* FROM CLIP NAME:  BHD-3IVX.MOV

FCM: DROP FRAME
212        AX AA    C        01:22:43:25 01:22:44:19 01:14:08:19 01:14:09:13  
* FROM CLIP NAME:  BHD.MP3

FCM: NON-DROP FRAME
213        AX V     C        01:22:46:12 01:22:48:03 01:14:09:13 01:14:11:04  
* FROM CLIP NAME:  BHD-3IVX.MOV

FCM: DROP FRAME
214        AX AA    C        01:22:46:14 01:22:47:09 01:14:09:13 01:14:10:08  
* FROM CLIP NAME:  BHD.MP3

215        AX NONE  C        01:22:25:29 01:22:26:25 01:14:10:08 01:14:11:04  
* FROM CLIP NAME:  BHD.MP3
AUD   3     4                                                                 

FCM: NON-DROP FRAME
216        AX V     C        01:22:49:13 01:22:50:12 01:14:11:04 01:14:12:03  
* FROM CLIP NAME:  BHD-3IVX.MOV

FCM: DROP FRAME
217        AX AA    C        01:22:49:15 01:22:49:29 01:14:11:04 01:14:11:18  
217        AX AA    D    030 01:22:54:04 01:22:56:06 01:14:11:18 01:14:13:20  
* EFFECT NAME: CROSS FADE (+3DB)
* FROM CLIP NAME:  BHD.MP3
* TO CLIP NAME:  BHD.MP3

FCM: NON-DROP FRAME
218        AX V     C        01:22:54:17 01:22:56:04 01:14:12:03 01:14:13:20  
* FROM CLIP NAME:  BHD-3IVX.MOV

219        AX V     C        01:23:05:15 01:23:07:00 01:14:13:20 01:14:15:05  
* FROM CLIP NAME:  BHD-3IVX.MOV

FCM: DROP FRAME
220        AX AA    C        01:23:05:19 01:23:07:04 01:14:13:20 01:14:15:05  
* FROM CLIP NAME:  BHD.MP3

FCM: NON-DROP FRAME
221        AX V     C        01:23:11:04 01:23:13:00 01:14:15:05 01:14:17:01  
* FROM CLIP NAME:  BHD-3IVX.MOV

FCM: DROP FRAME
222        AX AA    C        01:23:11:08 01:23:13:04 01:14:15:05 01:14:17:01  
* FROM CLIP NAME:  BHD.MP3

FCM: NON-DROP FRAME
223        AX V     C        01:23:42:05 01:23:49:00 01:14:17:01 01:14:23:26  
* FROM CLIP NAME:  BHD-3IVX.MOV

FCM: DROP FRAME
224        AX AA    C        01:23:42:09 01:23:49:04 01:14:17:01 01:14:23:26  
* FROM CLIP NAME:  BHD.MP3

FCM: NON-DROP FRAME
225        AX V     C        01:24:50:23 01:24:53:03 01:14:23:26 01:14:26:06  
* FROM CLIP NAME:  BHD-3IVX.MOV

FCM: DROP FRAME
226        AX AA    C        01:24:50:24 01:24:53:04 01:14:23:26 01:14:26:06  
* FROM CLIP NAME:  BHD.MP3

FCM: NON-DROP FRAME
227        AX V     C        01:24:54:13 01:24:56:23 01:14:26:06 01:14:28:16  
* FROM CLIP NAME:  BHD-3IVX.MOV

FCM: DROP FRAME
228        AX AA    C        01:24:54:14 01:24:56:24 01:14:26:06 01:14:28:16  
* FROM CLIP NAME:  BHD.MP3

FCM: NON-DROP FRAME
229        AX V     C        01:25:13:20 01:25:14:29 01:14:28:16 01:14:29:25  
* FROM CLIP NAME:  BHD-3IVX.MOV

FCM: DROP FRAME
230        AX AA    C        01:25:13:23 01:25:15:02 01:14:28:16 01:14:29:25  
* FROM CLIP NAME:  BHD.MP3

FCM: NON-DROP FRAME
231        AX V     C        01:26:20:22 01:26:24:19 01:14:29:25 01:14:33:22  
* FROM CLIP NAME:  BHD-3IVX.MOV

FCM: DROP FRAME
232        AX AA    C        01:26:20:27 01:26:24:24 01:14:29:25 01:14:33:22  
* FROM CLIP NAME:  BHD.MP3

FCM: NON-DROP FRAME
233        AX V     C        01:26:34:07 01:26:42:28 01:14:33:22 01:14:42:13  
* FROM CLIP NAME:  BHD-3IVX.MOV

FCM: DROP FRAME
234        AX AA    C        01:26:34:12 01:26:43:03 01:14:33:22 01:14:42:13  
* FROM CLIP NAME:  BHD.MP3

FCM: NON-DROP FRAME
235        AX V     C        01:26:43:25 01:26:44:26 01:14:42:13 01:14:43:14  
* FROM CLIP NAME:  BHD-3IVX.MOV

FCM: DROP FRAME
236        AX AA    C        01:26:44:00 01:26:45:01 01:14:42:13 01:14:43:14  
* FROM CLIP NAME:  BHD.MP3

FCM: NON-DROP FRAME
237        AX V     C        01:26:48:20 01:26:50:15 01:14:43:14 01:14:45:09  
* FROM CLIP NAME:  BHD-3IVX.MOV

FCM: DROP FRAME
238        AX AA    C        01:26:48:25 01:26:50:20 01:14:43:14 01:14:45:09  
* FROM CLIP NAME:  BHD.MP3

FCM: NON-DROP FRAME
239        AX V     C        01:26:51:19 01:26:54:07 01:14:45:09 01:14:47:27  
* FROM CLIP NAME:  BHD-3IVX.MOV

FCM: DROP FRAME
240        AX AA    C        01:26:51:24 01:26:54:12 01:14:45:09 01:14:47:27  
* FROM CLIP NAME:  BHD.MP3

FCM: NON-DROP FRAME
241        AX V     C        01:26:55:22 01:26:56:18 01:14:47:27 01:14:48:23  
* FROM CLIP NAME:  BHD-3IVX.MOV

FCM: DROP FRAME
242        AX AA    C        01:26:55:27 01:26:56:23 01:14:47:27 01:14:48:23  
* FROM CLIP NAME:  BHD.MP3

FCM: NON-DROP FRAME
243        AX V     C        01:26:57:18 01:27:07:18 01:14:48:23 01:14:58:23  
* FROM CLIP NAME:  BHD-3IVX.MOV

FCM: DROP FRAME
244        AX AA    C        01:26:57:23 01:27:07:25 01:14:48:23 01:14:58:23  
* FROM CLIP NAME:  BHD.MP3

FCM: NON-DROP FRAME
245        AX V     C        01:27:12:00 01:27:14:02 01:14:58:23 01:15:00:27  
* FROM CLIP NAME:  BHD-3IVX.MOV

FCM: DROP FRAME
246        AX AA    C        01:27:12:07 01:27:14:09 01:14:58:23 01:15:00:27  
* FROM CLIP NAME:  BHD.MP3

FCM: NON-DROP FRAME
247        AX V     C        01:27:15:11 01:27:17:16 01:15:00:27 01:15:03:02  
* FROM CLIP NAME:  BHD-3IVX.MOV

FCM: DROP FRAME
248        AX AA    C        01:27:15:18 01:27:17:23 01:15:00:27 01:15:03:02  
* FROM CLIP NAME:  BHD.MP3

FCM: NON-DROP FRAME
249        AX V     C        01:27:18:19 01:27:21:04 01:15:03:02 01:15:05:17  
* FROM CLIP NAME:  BHD-3IVX.MOV

FCM: DROP FRAME
250        AX AA    C        01:27:18:26 01:27:21:11 01:15:03:02 01:15:05:17  
* FROM CLIP NAME:  BHD.MP3

FCM: NON-DROP FRAME
251        AX V     C        01:27:22:10 01:27:24:01 01:15:05:17 01:15:07:08  
* FROM CLIP NAME:  BHD-3IVX.MOV

FCM: DROP FRAME
252        AX AA    C        01:27:22:17 01:27:24:08 01:15:05:17 01:15:07:08  
* FROM CLIP NAME:  BHD.MP3

FCM: NON-DROP FRAME
253        AX V     C        01:27:25:09 01:27:26:10 01:15:07:08 01:15:08:09  
* FROM CLIP NAME:  BHD-3IVX.MOV

FCM: DROP FRAME
254        AX AA    C        01:27:25:16 01:27:26:17 01:15:07:08 01:15:08:09  
* FROM CLIP NAME:  BHD.MP3

FCM: NON-DROP FRAME
255        AX V     C        01:27:27:04 01:27:28:03 01:15:08:09 01:15:09:08  
* FROM CLIP NAME:  BHD-3IVX.MOV

FCM: DROP FRAME
256        AX AA    C        01:27:27:11 01:27:28:10 01:15:08:09 01:15:09:08  
* FROM CLIP NAME:  BHD.MP3

FCM: NON-DROP FRAME
257        AX V     C        01:27:49:08 01:27:50:00 01:15:09:08 01:15:10:00  
* FROM CLIP NAME:  BHD-3IVX.MOV

FCM: DROP FRAME
258        AX AA    C        01:27:49:15 01:27:50:07 01:15:09:08 01:15:10:00  
* FROM CLIP NAME:  BHD.MP3

FCM: NON-DROP FRAME
259        AX V     C        01:27:50:22 01:27:51:21 01:15:10:00 01:15:10:29  
* FROM CLIP NAME:  BHD-3IVX.MOV

FCM: DROP FRAME
260        AX AA    C        01:27:50:29 01:27:51:28 01:15:10:00 01:15:10:29  
* FROM CLIP NAME:  BHD.MP3

FCM: NON-DROP FRAME
261        AX V     C        01:28:20:22 01:28:21:27 01:15:10:29 01:15:12:04  
* FROM CLIP NAME:  BHD-3IVX.MOV

FCM: DROP FRAME
262        AX AA    C        01:28:20:27 01:28:22:02 01:15:10:29 01:15:12:04  
* FROM CLIP NAME:  BHD.MP3

FCM: NON-DROP FRAME
263        AX V     C        01:30:04:27 01:30:05:26 01:15:12:04 01:15:13:03  
* FROM CLIP NAME:  BHD-3IVX.MOV

FCM: DROP FRAME
264        AX AA    C        01:30:05:00 01:30:05:29 01:15:12:04 01:15:13:03  
* FROM CLIP NAME:  BHD.MP3

FCM: NON-DROP FRAME
265        AX V     C        01:30:06:25 01:30:07:15 01:15:13:03 01:15:13:23  
* FROM CLIP NAME:  BHD-3IVX.MOV

FCM: DROP FRAME
266        AX AA    C        01:30:06:28 01:30:07:18 01:15:13:03 01:15:13:23  
* FROM CLIP NAME:  BHD.MP3

FCM: NON-DROP FRAME
267        AX V     C        01:30:12:20 01:30:14:28 01:15:13:23 01:15:16:01  
* FROM CLIP NAME:  BHD-3IVX.MOV

FCM: DROP FRAME
268        AX AA    C        01:30:12:23 01:30:15:01 01:15:13:23 01:15:16:01  
* FROM CLIP NAME:  BHD.MP3

FCM: NON-DROP FRAME
269        AX V     C        01:30:24:01 01:30:25:06 01:15:16:01 01:15:17:06  
* FROM CLIP NAME:  BHD-3IVX.MOV

FCM: DROP FRAME
270        AX AA    C        01:30:24:04 01:30:25:09 01:15:16:01 01:15:17:06  
* FROM CLIP NAME:  BHD.MP3

FCM: NON-DROP FRAME
271        AX V     C        01:30:35:02 01:30:36:10 01:15:17:06 01:15:18:14  
* FROM CLIP NAME:  BHD-3IVX.MOV

FCM: DROP FRAME
272        AX AA    C        01:30:35:05 01:30:36:13 01:15:17:06 01:15:18:14  
* FROM CLIP NAME:  BHD.MP3

FCM: NON-DROP FRAME
273        AX V     C        01:30:38:10 01:30:40:25 01:15:18:14 01:15:20:29  
* FROM CLIP NAME:  BHD-3IVX.MOV

FCM: DROP FRAME
274        AX AA    C        01:30:38:13 01:30:40:28 01:15:18:14 01:15:20:29  
* FROM CLIP NAME:  BHD.MP3

FCM: NON-DROP FRAME
275        AX V     C        01:30:49:19 01:30:50:04 01:15:20:29 01:15:21:14  
* FROM CLIP NAME:  BHD-3IVX.MOV

FCM: DROP FRAME
276        AX AA    C        01:30:49:22 01:30:50:07 01:15:20:29 01:15:21:14  
* FROM CLIP NAME:  BHD.MP3

FCM: NON-DROP FRAME
277        AX V     C        01:30:58:20 01:30:59:17 01:15:21:14 01:15:22:11  
* FROM CLIP NAME:  BHD-3IVX.MOV

FCM: DROP FRAME
278        AX AA    C        01:30:58:23 01:30:59:20 01:15:21:14 01:15:22:11  
* FROM CLIP NAME:  BHD.MP3

FCM: NON-DROP FRAME
279        AX V     C        01:31:26:09 01:31:36:00 01:15:22:11 01:15:32:02  
* FROM CLIP NAME:  BHD-3IVX.MOV

FCM: DROP FRAME
280        AX AA    C        01:31:26:14 01:31:36:05 01:15:22:11 01:15:32:02  
* FROM CLIP NAME:  BHD.MP3

FCM: NON-DROP FRAME
281        AX V     C        01:32:08:24 01:32:11:14 01:15:32:02 01:15:34:22  
* FROM CLIP NAME:  BHD-3IVX.MOV

FCM: DROP FRAME
282        AX AA    C        01:32:09:01 01:32:11:21 01:15:32:02 01:15:34:22  
* FROM CLIP NAME:  BHD.MP3

FCM: NON-DROP FRAME
283        AX V     C        01:32:12:26 01:32:13:24 01:15:34:22 01:15:35:20  
* FROM CLIP NAME:  BHD-3IVX.MOV

FCM: DROP FRAME
284        AX AA    C        01:32:13:03 01:32:14:01 01:15:34:22 01:15:35:20  
* FROM CLIP NAME:  BHD.MP3

FCM: NON-DROP FRAME
285        AX V     C        01:32:14:14 01:32:16:01 01:15:35:20 01:15:37:07  
* FROM CLIP NAME:  BHD-3IVX.MOV

FCM: DROP FRAME
286        AX AA    C        01:32:14:21 01:32:15:23 01:15:35:20 01:15:36:22  
286        AX AA    D    030 01:32:29:23 01:32:31:14 01:15:36:22 01:15:38:13  
* EFFECT NAME: CROSS FADE (+3DB)
* FROM CLIP NAME:  BHD.MP3
* TO CLIP NAME:  BHD.MP3

FCM: NON-DROP FRAME
287        AX V     C        01:32:30:01 01:32:31:07 01:15:37:07 01:15:38:13  
* FROM CLIP NAME:  BHD-3IVX.MOV

288        AX V     C        01:32:32:01 01:32:36:07 01:15:38:13 01:15:42:19  
* FROM CLIP NAME:  BHD-3IVX.MOV

FCM: DROP FRAME
289        AX AA    C        01:32:32:08 01:32:36:14 01:15:38:13 01:15:42:19  
* FROM CLIP NAME:  BHD.MP3

FCM: NON-DROP FRAME
290        AX V     C        01:32:37:29 01:32:39:01 01:15:42:19 01:15:43:21  
* FROM CLIP NAME:  BHD-3IVX.MOV

FCM: DROP FRAME
291        AX AA    C        01:32:38:06 01:32:39:08 01:15:42:19 01:15:43:21  
* FROM CLIP NAME:  BHD.MP3

FCM: NON-DROP FRAME
292        AX V     C        01:32:41:02 01:32:53:04 01:15:43:21 01:15:55:23  
* FROM CLIP NAME:  BHD-3IVX.MOV

FCM: DROP FRAME
293        AX AA    C        01:32:41:09 01:32:53:11 01:15:43:21 01:15:55:23  
* FROM CLIP NAME:  BHD.MP3

FCM: NON-DROP FRAME
294        AX V     C        01:33:03:15 01:33:12:02 01:15:55:23 01:16:04:12  
* FROM CLIP NAME:  BHD-3IVX.MOV

FCM: DROP FRAME
295        AX AA    C        01:33:03:24 01:33:12:11 01:15:55:23 01:16:04:12  
* FROM CLIP NAME:  BHD.MP3

FCM: NON-DROP FRAME
296        AX V     C        01:33:14:09 01:33:18:21 01:16:04:12 01:16:08:24  
* FROM CLIP NAME:  BHD-3IVX.MOV

FCM: DROP FRAME
297        AX AA    C        01:33:14:18 01:33:25:22 01:16:04:12 01:16:15:16  
* FROM CLIP NAME:  BHD.MP3

FCM: NON-DROP FRAME
298        AX V     C        01:33:27:07 01:33:31:04 01:16:08:24 01:16:12:21  
* FROM CLIP NAME:  BHD-3IVX.MOV

299        AX V     C        01:33:32:19 01:33:35:14 01:16:12:21 01:16:15:16  
* FROM CLIP NAME:  BHD-3IVX.MOV

FCM: DROP FRAME
300        BL NONE  C        00:00:00:00 00:00:00:00 01:16:12:24 01:16:12:24  
300        AX NONE  D    085 01:33:32:28 01:33:35:23 01:16:12:24 01:16:15:19  
* EFFECT NAME: CROSS FADE (+3DB)
AUD   3     4                                                                 

FCM: NON-DROP FRAME
301        AX V     C        01:33:38:29 01:33:46:04 01:16:15:16 01:16:22:21  
* FROM CLIP NAME:  BHD-3IVX.MOV

FCM: DROP FRAME
302        AX AA    C        01:33:39:08 01:33:43:25 01:16:15:16 01:16:20:03  
302        AX AA    D    078 01:33:55:07 01:34:02:02 01:16:20:03 01:16:26:26  
* EFFECT NAME: CROSS FADE (+3DB)
* FROM CLIP NAME:  BHD.MP3
* TO CLIP NAME:  BHD.MP3

303        AX NONE  C        01:33:35:23 01:33:36:17 01:16:15:19 01:16:16:13  
303        BL NONE  D    081 00:00:00:00 00:00:02:21 01:16:16:13 01:16:19:04  
* EFFECT NAME: CROSS FADE (+3DB)
* FROM CLIP NAME:  BHD.MP3
AUD   3     4                                                                 

FCM: NON-DROP FRAME
304        AX V     C        01:33:57:16 01:34:01:21 01:16:22:21 01:16:26:26  
* FROM CLIP NAME:  BHD-3IVX.MOV

305        AX V     C        01:34:03:26 01:34:15:12 01:16:26:26 01:16:38:12  
* FROM CLIP NAME:  BHD-3IVX.MOV

FCM: DROP FRAME
306        AX AA    C        01:34:04:01 01:34:15:17 01:16:26:26 01:16:38:12  
* FROM CLIP NAME:  BHD.MP3

FCM: NON-DROP FRAME
307        AX V     C        01:34:17:20 01:34:24:15 01:16:38:12 01:16:45:07  
* FROM CLIP NAME:  BHD-3IVX.MOV

FCM: DROP FRAME
308        AX AA    C        01:34:17:25 01:34:24:05 01:16:38:12 01:16:44:22  
308        AX AA    D    030 01:35:56:25 01:36:12:20 01:16:44:22 01:17:00:17  
* EFFECT NAME: CROSS FADE (+3DB)
* FROM CLIP NAME:  BHD.MP3
* TO CLIP NAME:  BHD.MP3

FCM: NON-DROP FRAME
309        AX V     C        01:34:40:09 01:34:43:26 01:16:45:07 01:16:48:24  
* FROM CLIP NAME:  BHD-3IVX.MOV

310        AX V     C        01:34:51:14 01:34:55:25 01:16:48:24 01:16:53:05  
* FROM CLIP NAME:  BHD-3IVX.MOV

311        AX V     C        01:35:00:09 01:35:02:18 01:16:53:05 01:16:55:14  
* FROM CLIP NAME:  BHD-3IVX.MOV

312        AX V     C        01:38:50:27 01:38:52:01 01:16:55:14 01:16:56:18  
* FROM CLIP NAME:  BHD-3IVX.MOV

313        AX V     C        01:36:39:09 01:36:41:22 01:16:56:18 01:16:59:01  
* FROM CLIP NAME:  BHD-3IVX.MOV

314        AX V     C        01:39:18:05 01:39:19:04 01:16:59:01 01:17:00:02  
314        AX V     D    030 01:42:24:26 01:42:46:03 01:17:00:02 01:17:21:09  
* EFFECT NAME: CROSS DISSOLVE
* FROM CLIP NAME:  BHD-3IVX.MOV
* TO CLIP NAME:  BHD-3IVX.MOV

FCM: DROP FRAME
315        AX AA    C        01:36:12:20 01:36:12:20 01:17:00:17 01:17:00:17  
315        AX AA    D    030 01:42:25:06 01:42:45:28 01:17:00:17 01:17:21:09  
* EFFECT NAME: CROSS FADE (+3DB)
* FROM CLIP NAME:  BHD.MP3
* TO CLIP NAME:  BHD.MP3

FCM: NON-DROP FRAME
316        AX V     C        01:42:48:10 01:42:49:04 01:17:21:09 01:17:22:03  
* FROM CLIP NAME:  BHD-3IVX.MOV

FCM: DROP FRAME
317        AX AA    C        01:42:48:12 01:42:49:06 01:17:21:09 01:17:22:03  
* FROM CLIP NAME:  BHD.MP3

FCM: NON-DROP FRAME
318        AX V     C        01:42:50:29 01:42:53:28 01:17:22:03 01:17:25:02  
* FROM CLIP NAME:  BHD-3IVX.MOV

FCM: DROP FRAME
319        AX AA    C        01:42:51:01 01:42:54:00 01:17:22:03 01:17:25:02  
* FROM CLIP NAME:  BHD.MP3

FCM: NON-DROP FRAME
320        AX V     C        01:44:03:10 01:44:15:28 01:17:25:02 01:17:37:20  
* FROM CLIP NAME:  BHD-3IVX.MOV

FCM: DROP FRAME
321        AX AA    C        01:44:03:16 01:44:08:21 01:17:25:02 01:17:30:07  
* FROM CLIP NAME:  BHD.MP3

322        AX AA    C        01:44:08:21 01:44:09:22 01:17:30:07 01:17:31:08  
* FROM CLIP NAME:  BHD.MP3

323        AX AA    C        01:44:09:22 01:44:13:00 01:17:31:08 01:17:34:16  
* FROM CLIP NAME:  BHD.MP3

324        AX AA    C        01:44:08:21 01:44:09:22 01:17:34:16 01:17:35:17  
* FROM CLIP NAME:  BHD.MP3

325        AX AA    C        01:44:14:01 01:44:16:04 01:17:35:17 01:17:37:20  
* FROM CLIP NAME:  BHD.MP3

FCM: NON-DROP FRAME
326        AX V     C        01:44:21:02 01:44:37:05 01:17:37:20 01:17:53:23  
* FROM CLIP NAME:  BHD-3IVX.MOV

FCM: DROP FRAME
327        AX AA    C        01:44:21:08 01:44:37:11 01:17:37:20 01:17:53:23  
* FROM CLIP NAME:  BHD.MP3

328        AX NONE  C        01:44:41:08 01:44:41:23 01:17:53:08 01:17:53:23  
* FROM CLIP NAME:  BHD.MP3
AUD   3     4                                                                 

FCM: NON-DROP FRAME
329        AX V     C        01:44:41:17 01:44:54:15 01:17:53:23 01:18:06:23  
* FROM CLIP NAME:  BHD-3IVX.MOV

FCM: DROP FRAME
330        AX AA    C        01:44:41:23 01:44:43:02 01:17:53:23 01:17:55:02  
* FROM CLIP NAME:  BHD.MP3

331        AX AA    C        01:44:43:02 01:44:44:16 01:17:55:02 01:17:56:16  
* FROM CLIP NAME:  BHD.MP3

332        AX AA    C        01:44:44:16 01:44:46:15 01:17:56:16 01:17:58:15  
* FROM CLIP NAME:  BHD.MP3

333        AX AA    C        01:44:43:02 01:44:44:16 01:17:58:15 01:17:59:29  
* FROM CLIP NAME:  BHD.MP3

334        AX AA    C        01:44:43:02 01:44:44:16 01:17:59:29 01:18:01:15  
* FROM CLIP NAME:  BHD.MP3

335        AX AA    C        01:44:49:13 01:44:54:21 01:18:01:15 01:18:06:23  
* FROM CLIP NAME:  BHD.MP3

FCM: NON-DROP FRAME
336        AX V     C        01:45:03:01 01:45:14:07 01:18:06:23 01:18:17:29  
* FROM CLIP NAME:  BHD-3IVX.MOV

FCM: DROP FRAME
337        AX AA    C        01:45:03:09 01:45:04:24 01:18:06:23 01:18:08:08  
* FROM CLIP NAME:  BHD.MP3

338        AX AA    C        01:45:06:04 01:45:08:09 01:18:08:08 01:18:10:13  
* FROM CLIP NAME:  BHD.MP3

339        AX AA    C        01:45:06:29 01:45:08:09 01:18:10:13 01:18:11:23  
* FROM CLIP NAME:  BHD.MP3

340        AX AA    C        01:45:08:09 01:45:14:15 01:18:11:23 01:18:17:29  
* FROM CLIP NAME:  BHD.MP3

FCM: NON-DROP FRAME
341        AX V     C        01:45:19:11 01:45:20:16 01:18:17:29 01:18:19:04  
* FROM CLIP NAME:  BHD-3IVX.MOV

FCM: DROP FRAME
342        AX AA    C        01:45:18:29 01:45:19:19 01:18:17:29 01:18:18:19  
* FROM CLIP NAME:  BHD.MP3

343        AX AA    C        01:45:19:19 01:45:20:04 01:18:18:19 01:18:19:04  
* FROM CLIP NAME:  BHD.MP3

FCM: NON-DROP FRAME
344        AX V     C        01:45:19:24 01:45:21:19 01:18:19:04 01:18:20:29  
* FROM CLIP NAME:  BHD-3IVX.MOV

FCM: DROP FRAME
345        AX AA    C        01:45:22:08 01:45:29:09 01:18:19:04 01:18:26:05  
* FROM CLIP NAME:  BHD.MP3

FCM: NON-DROP FRAME
346        AX V     C        01:45:23:27 01:45:29:00 01:18:20:29 01:18:26:02  
* FROM CLIP NAME:  BHD-3IVX.MOV

347        AX V     C        01:45:35:22 01:45:41:18 01:18:26:02 01:18:31:28  
* FROM CLIP NAME:  BHD-3IVX.MOV

FCM: DROP FRAME
348        AX AA    C        01:45:35:28 01:45:44:29 01:18:26:05 01:18:35:06  
* FROM CLIP NAME:  BHD.MP3

FCM: NON-DROP FRAME
349        AX V     C        01:45:45:08 01:45:46:21 01:18:31:28 01:18:33:11  
349        AX V     D    055 01:48:59:19 01:49:14:00 01:18:33:11 01:18:47:22  
* EFFECT NAME: CROSS DISSOLVE
* FROM CLIP NAME:  BHD-3IVX.MOV
* TO CLIP NAME:  BHD-3IVX.MOV

FCM: DROP FRAME
350        AX AA    C        01:48:59:21 01:49:12:09 01:18:35:06 01:18:47:22  
* FROM CLIP NAME:  BHD.MP3

FCM: NON-DROP FRAME
351        AX V     C        01:49:45:03 01:49:48:19 01:18:47:22 01:18:51:08  
* FROM CLIP NAME:  BHD-3IVX.MOV

FCM: DROP FRAME
352        AX AA    C        01:49:45:07 01:49:48:23 01:18:47:22 01:18:51:08  
* FROM CLIP NAME:  BHD.MP3

353        AX NONE  C        01:49:38:25 01:49:41:00 01:18:50:11 01:18:52:16  
353        BL NONE  D    065 00:00:00:00 00:00:02:05 01:18:52:16 01:18:54:21  
* EFFECT NAME: CROSS FADE (+3DB)
* FROM CLIP NAME:  BHD.MP3
AUD   3     4                                                                 

FCM: NON-DROP FRAME
354        AX V     C        01:49:40:03 01:49:41:11 01:18:51:08 01:18:52:16  
* FROM CLIP NAME:  BHD-3IVX.MOV

355        AX V     C        01:49:56:18 01:50:09:04 01:18:52:16 01:19:05:04  
* FROM CLIP NAME:  BHD-3IVX.MOV

FCM: DROP FRAME
356        AX AA    C        01:49:56:22 01:50:09:08 01:18:52:16 01:19:05:04  
* FROM CLIP NAME:  BHD.MP3

FCM: NON-DROP FRAME
357        AX V     C        01:50:17:08 01:50:19:06 01:19:05:04 01:19:07:02  
* FROM CLIP NAME:  BHD-3IVX.MOV

FCM: DROP FRAME
358        AX AA    C        01:50:17:12 01:50:19:10 01:19:05:04 01:19:07:02  
* FROM CLIP NAME:  BHD.MP3

FCM: NON-DROP FRAME
359        AX V     C        01:50:21:04 01:50:27:29 01:19:07:02 01:19:13:27  
* FROM CLIP NAME:  BHD-3IVX.MOV

FCM: DROP FRAME
360        AX AA    C        01:50:21:08 01:50:28:03 01:19:07:02 01:19:13:27  
* FROM CLIP NAME:  BHD.MP3

FCM: NON-DROP FRAME
361        AX V     C        01:50:48:03 01:50:52:18 01:19:13:27 01:19:18:12  
* FROM CLIP NAME:  BHD-3IVX.MOV

FCM: DROP FRAME
362        AX AA    C        01:50:48:07 01:50:52:22 01:19:13:27 01:19:18:12  
* FROM CLIP NAME:  BHD.MP3

FCM: NON-DROP FRAME
363        AX V     C        01:51:12:10 01:51:14:27 01:19:18:12 01:19:20:29  
* FROM CLIP NAME:  BHD-3IVX.MOV

FCM: DROP FRAME
364        AX AA    C        01:51:12:16 01:51:15:03 01:19:18:12 01:19:20:29  
* FROM CLIP NAME:  BHD.MP3

FCM: NON-DROP FRAME
365        AX V     C        01:51:17:28 01:51:19:27 01:19:20:29 01:19:22:28  
* FROM CLIP NAME:  BHD-3IVX.MOV

FCM: DROP FRAME
366        AX AA    C        01:51:18:04 01:51:20:03 01:19:20:29 01:19:22:28  
* FROM CLIP NAME:  BHD.MP3

FCM: NON-DROP FRAME
367        AX V     C        01:51:20:23 01:51:22:28 01:19:22:28 01:19:25:03  
* FROM CLIP NAME:  BHD-3IVX.MOV

FCM: DROP FRAME
368        AX AA    C        01:51:20:29 01:51:23:04 01:19:22:28 01:19:25:03  
* FROM CLIP NAME:  BHD.MP3

FCM: NON-DROP FRAME
369        AX V     C        01:51:32:14 01:51:33:24 01:19:25:03 01:19:26:13  
* FROM CLIP NAME:  BHD-3IVX.MOV

FCM: DROP FRAME
370        AX AA    C        01:51:32:20 01:51:34:00 01:19:25:03 01:19:26:13  
* FROM CLIP NAME:  BHD.MP3

FCM: NON-DROP FRAME
371        AX V     C        01:51:34:14 01:51:35:13 01:19:26:13 01:19:27:12  
* FROM CLIP NAME:  BHD-3IVX.MOV

FCM: DROP FRAME
372        AX AA    C        01:51:34:20 01:51:35:19 01:19:26:13 01:19:27:12  
* FROM CLIP NAME:  BHD.MP3

FCM: NON-DROP FRAME
373        AX V     C        01:51:36:02 01:51:39:06 01:19:27:12 01:19:30:16  
* FROM CLIP NAME:  BHD-3IVX.MOV

FCM: DROP FRAME
374        AX AA    C        01:51:36:08 01:51:39:12 01:19:27:12 01:19:30:16  
* FROM CLIP NAME:  BHD.MP3

FCM: NON-DROP FRAME
375        AX V     C        01:57:32:18 01:57:39:03 01:19:30:16 01:19:37:01  
* FROM CLIP NAME:  BHD-3IVX.MOV

FCM: DROP FRAME
376        AX AA    C        01:57:32:22 01:57:39:07 01:19:30:16 01:19:37:01  
* FROM CLIP NAME:  BHD.MP3

FCM: NON-DROP FRAME
377        AX V     C        01:57:47:01 01:57:48:14 01:19:37:01 01:19:38:14  
* FROM CLIP NAME:  BHD-3IVX.MOV

FCM: DROP FRAME
378        AX AA    C        01:57:47:05 01:57:48:18 01:19:37:01 01:19:38:14  
* FROM CLIP NAME:  BHD.MP3

FCM: NON-DROP FRAME
379        AX V     C        01:57:52:11 01:57:53:29 01:19:38:14 01:19:40:02  
* FROM CLIP NAME:  BHD-3IVX.MOV

FCM: DROP FRAME
380        AX AA    C        01:57:52:15 01:57:54:03 01:19:38:14 01:19:40:02  
* FROM CLIP NAME:  BHD.MP3

FCM: NON-DROP FRAME
381        AX V     C        01:58:16:16 01:58:18:21 01:19:40:02 01:19:42:07  
* FROM CLIP NAME:  BHD-3IVX.MOV

FCM: DROP FRAME
382        AX AA    C        01:58:11:19 01:58:13:24 01:19:40:02 01:19:42:07  
* FROM CLIP NAME:  BHD.MP3

FCM: NON-DROP FRAME
383        AX V     C        01:58:45:29 01:58:47:04 01:19:42:07 01:19:43:12  
* FROM CLIP NAME:  BHD-3IVX.MOV

FCM: DROP FRAME
384        AX AA    C        01:58:45:11 01:58:46:16 01:19:42:07 01:19:43:12  
* FROM CLIP NAME:  BHD.MP3

FCM: NON-DROP FRAME
385        AX V     C        01:59:01:09 01:59:02:06 01:19:43:12 01:19:44:09  
* FROM CLIP NAME:  BHD-3IVX.MOV

FCM: DROP FRAME
386        AX AA    C        01:59:01:03 01:59:02:00 01:19:43:12 01:19:44:09  
* FROM CLIP NAME:  BHD.MP3

FCM: NON-DROP FRAME
387        AX V     C        01:59:02:20 01:59:03:22 01:19:44:09 01:19:45:11  
* FROM CLIP NAME:  BHD-3IVX.MOV

FCM: DROP FRAME
388        AX AA    C        01:59:02:14 01:59:03:16 01:19:44:09 01:19:45:11  
* FROM CLIP NAME:  BHD.MP3

FCM: NON-DROP FRAME
389        AX V     C        01:59:09:21 01:59:11:09 01:19:45:11 01:19:46:29  
* FROM CLIP NAME:  BHD-3IVX.MOV

FCM: DROP FRAME
390        AX AA    C        01:59:09:15 01:59:11:03 01:19:45:11 01:19:46:29  
* FROM CLIP NAME:  BHD.MP3

FCM: NON-DROP FRAME
391        AX V     C        01:59:13:14 01:59:16:28 01:19:46:29 01:19:50:13  
* FROM CLIP NAME:  BHD-3IVX.MOV

FCM: DROP FRAME
392        AX AA    C        01:59:11:03 01:59:14:17 01:19:46:29 01:19:50:13  
* FROM CLIP NAME:  BHD.MP3

FCM: NON-DROP FRAME
393        AX V     C        01:59:18:04 01:59:20:08 01:19:50:13 01:19:52:17  
* FROM CLIP NAME:  BHD-3IVX.MOV

FCM: DROP FRAME
394        AX AA    C        01:59:17:28 01:59:20:02 01:19:50:13 01:19:52:17  
* FROM CLIP NAME:  BHD.MP3

FCM: NON-DROP FRAME
395        AX V     C        01:59:22:15 01:59:26:24 01:19:52:17 01:19:56:26  
* FROM CLIP NAME:  BHD-3IVX.MOV

FCM: DROP FRAME
396        AX AA    C        01:59:22:23 01:59:27:02 01:19:52:17 01:19:56:26  
* FROM CLIP NAME:  BHD.MP3

FCM: NON-DROP FRAME
397        AX V     C        01:59:30:28 01:59:34:22 01:19:56:26 01:20:00:20  
* FROM CLIP NAME:  BHD-3IVX.MOV

FCM: DROP FRAME
398        AX AA    C        01:59:31:06 01:59:35:00 01:19:56:26 01:20:00:20  
* FROM CLIP NAME:  BHD.MP3

FCM: NON-DROP FRAME
399        AX V     C        01:59:36:29 01:59:40:26 01:20:00:20 01:20:04:17  
* FROM CLIP NAME:  BHD-3IVX.MOV

FCM: DROP FRAME
400        AX AA    C        01:59:37:07 01:59:43:08 01:20:00:20 01:20:06:21  
* FROM CLIP NAME:  BHD.MP3

FCM: NON-DROP FRAME
401        AX V     C        02:00:15:04 02:00:17:08 01:20:04:17 01:20:06:21  
* FROM CLIP NAME:  BHD-3IVX.MOV

402        AX V     C        02:00:31:15 02:00:38:18 01:20:06:21 01:20:13:24  
* FROM CLIP NAME:  BHD-3IVX.MOV

FCM: DROP FRAME
403        AX AA    C        02:00:31:19 02:00:38:22 01:20:06:21 01:20:13:24  
* FROM CLIP NAME:  BHD.MP3

FCM: NON-DROP FRAME
404        AX V     C        02:00:41:26 02:00:46:09 01:20:13:24 01:20:18:07  
* FROM CLIP NAME:  BHD-3IVX.MOV

FCM: DROP FRAME
405        AX AA    C        02:00:42:00 02:00:46:13 01:20:13:24 01:20:18:07  
* FROM CLIP NAME:  BHD.MP3

FCM: NON-DROP FRAME
406        AX V     C        02:00:51:20 02:00:53:18 01:20:18:07 01:20:20:05  
* FROM CLIP NAME:  BHD-3IVX.MOV

FCM: DROP FRAME
407        AX AA    C        02:00:51:24 02:00:53:22 01:20:18:07 01:20:20:05  
* FROM CLIP NAME:  BHD.MP3

FCM: NON-DROP FRAME
408        AX V     C        02:00:55:04 02:00:56:24 01:20:20:05 01:20:21:25  
* FROM CLIP NAME:  BHD-3IVX.MOV

FCM: DROP FRAME
409        AX AA    C        02:00:55:08 02:00:56:28 01:20:20:05 01:20:21:25  
* FROM CLIP NAME:  BHD.MP3

FCM: NON-DROP FRAME
410        AX V     C        02:01:08:22 02:01:11:17 01:20:21:25 01:20:24:20  
* FROM CLIP NAME:  BHD-3IVX.MOV

FCM: DROP FRAME
411        AX AA    C        02:00:56:28 02:01:03:18 01:20:21:25 01:20:28:13  
* FROM CLIP NAME:  BHD.MP3

FCM: NON-DROP FRAME
412        AX V     C        02:01:16:10 02:01:17:16 01:20:24:20 01:20:25:26  
* FROM CLIP NAME:  BHD-3IVX.MOV

FCM: DROP FRAME
413        AX NONE  C        02:01:16:17 02:01:17:23 01:20:24:20 01:20:25:26  
* FROM CLIP NAME:  BHD.MP3
AUD   3     4                                                                 

FCM: NON-DROP FRAME
414        AX V     C        02:03:06:13 02:03:09:00 01:20:25:26 01:20:28:13  
* FROM CLIP NAME:  BHD-3IVX.MOV

415        AX V     C        02:05:07:25 02:05:15:18 01:20:28:13 01:20:36:06  
* FROM CLIP NAME:  BHD-3IVX.MOV

FCM: DROP FRAME
416        AX AA    C        02:05:07:29 02:05:15:22 01:20:28:13 01:20:36:06  
* FROM CLIP NAME:  BHD.MP3

FCM: NON-DROP FRAME
417        AX V     C        02:05:23:21 02:05:38:15 01:20:36:06 01:20:51:00  
* FROM CLIP NAME:  BHD-3IVX.MOV

FCM: DROP FRAME
418        AX AA    C        02:05:27:03 02:05:41:27 01:20:36:06 01:20:51:00  
* FROM CLIP NAME:  BHD.MP3

FCM: NON-DROP FRAME
419        AX V     C        02:06:10:14 02:06:11:07 01:20:51:00 01:20:51:23  
* FROM CLIP NAME:  BHD-3IVX.MOV

FCM: DROP FRAME
420        AX AA    C        02:06:10:17 02:06:11:10 01:20:51:00 01:20:51:23  
* FROM CLIP NAME:  BHD.MP3

FCM: NON-DROP FRAME
421        AX V     C        02:06:13:27 02:06:15:08 01:20:51:23 01:20:53:04  
* FROM CLIP NAME:  BHD-3IVX.MOV

FCM: DROP FRAME
422        AX AA    C        02:06:14:00 02:06:15:11 01:20:51:23 01:20:53:04  
* FROM CLIP NAME:  BHD.MP3

FCM: NON-DROP FRAME
423        AX V     C        02:06:16:00 02:06:22:28 01:20:53:04 01:21:00:04  
* FROM CLIP NAME:  BHD-3IVX.MOV

FCM: DROP FRAME
424        AX AA    C        02:06:16:03 02:06:23:01 01:20:53:04 01:21:00:04  
* FROM CLIP NAME:  BHD.MP3

FCM: NON-DROP FRAME
425        AX V     C        02:06:23:11 02:06:24:03 01:21:00:04 01:21:00:26  
* FROM CLIP NAME:  BHD-3IVX.MOV

FCM: DROP FRAME
426        AX AA    C        02:06:23:14 02:06:24:06 01:21:00:04 01:21:00:26  
* FROM CLIP NAME:  BHD.MP3

FCM: NON-DROP FRAME
427        AX V     C        02:06:24:24 02:06:26:07 01:21:00:26 01:21:02:09  
* FROM CLIP NAME:  BHD-3IVX.MOV

FCM: DROP FRAME
428        AX AA    C        02:06:24:27 02:06:26:10 01:21:00:26 01:21:02:09  
* FROM CLIP NAME:  BHD.MP3

FCM: NON-DROP FRAME
429        AX V     C        02:07:23:22 02:07:29:22 01:21:02:09 01:21:08:09  
* FROM CLIP NAME:  BHD-3IVX.MOV

FCM: DROP FRAME
430        AX AA    C        02:07:21:07 02:08:17:16 01:21:02:09 01:21:58:16  
430        BL AA    D    187 00:00:00:00 00:00:06:07 01:21:58:16 01:22:04:25  
* EFFECT NAME: CROSS FADE (+3DB)
* FROM CLIP NAME:  BHD.MP3

FCM: NON-DROP FRAME
431        AX V     C        02:07:35:16 02:07:43:03 01:21:08:09 01:21:15:26  
* FROM CLIP NAME:  BHD-3IVX.MOV

432        AX V     C        02:07:54:10 02:07:56:01 01:21:15:26 01:21:17:17  
* FROM CLIP NAME:  BHD-3IVX.MOV

433        AX V     C        02:07:58:01 02:07:59:28 01:21:17:17 01:21:19:14  
* FROM CLIP NAME:  BHD-3IVX.MOV

434        AX V     C        02:08:11:25 02:08:17:17 01:21:19:14 01:21:25:06  
* FROM CLIP NAME:  BHD-3IVX.MOV

435        AX V     C        02:09:01:24 02:09:05:05 01:21:25:06 01:21:28:17  
* FROM CLIP NAME:  BHD-3IVX.MOV

436        AX V     C        02:13:06:27 02:13:30:00 01:21:28:17 01:21:51:20  
* FROM CLIP NAME:  BHD-3IVX.MOV

437  STL      V     C        00:01:00:00 00:01:03:29 01:21:54:19 01:21:58:18  
* FROM CLIP NAME:  TITLE.JPG
* COMMENT: 
* FROM CLIP IS A STILL
M2   STL            000.0                00:01:00:00

                                                                                                                                             