TITLE: SCENE 00, 01, 02 together
FCM: NON-DROP FRAME

001  AX       AA/V  C        03:47:47:05 03:49:03:39 00:00:00:00 00:01:16:34
* FROM CLIP NAME: CamA9014_01.MP4

002  AX       AA/V  C        04:01:23:12 04:01:29:04 00:01:16:34 00:01:22:26
* FROM CLIP NAME: CamA9017_01.MP4

003  AX       AA/V  C        04:01:43:00 04:01:45:39 00:01:22:26 00:01:25:15
* FROM CLIP NAME: CamA9017_01.MP4

004  AX       AA/V  C        04:02:56:07 04:02:58:13 00:01:25:15 00:01:27:21
* FROM CLIP NAME: CamA9018_01.MP4

005  AX       AA/V  C        04:30:40:49 04:31:04:01 00:01:27:21 00:01:50:23
* FROM CLIP NAME: CamA9022_01.MP4

006  AX       AA/V  C        04:33:50:31 04:34:10:34 00:01:50:23 00:02:10:26
* FROM CLIP NAME: CamA9023_01.MP4

007  AX       AA/V  C        04:44:28:08 04:45:25:01 00:02:10:26 00:03:07:19
* FROM CLIP NAME: CamA9026_01.MP4

008  AX       AA/V  C        04:48:37:36 04:49:02:31 00:03:07:19 00:03:32:14
* FROM CLIP NAME: CamA9028_01.MP4

009  AX       AA/V  C        04:12:19:14 04:12:34:14 00:03:32:14 00:03:47:14
* FROM CLIP NAME: CamA9019_01.MP4

010  AX       AA/V  C        04:15:24:26 04:15:33:36 00:03:47:14 00:03:56:24
* FROM CLIP NAME: CamA9020_01.MP4

011  AX       AA/V  C        04:19:08:31 04:19:34:26 00:03:56:24 00:04:22:19
* FROM CLIP NAME: CamA9021_01.MP4
